<svg width="23" height="24" viewBox="0 0 23 24" fill="none" xmlns="http://www.w3.org/2000/svg">
<g id="header_icon_2.svg" clip-path="url(#clip0_1547_2934)">
<path id="Vector" d="M22.183 10.087L20.6438 8.29873C20.3495 7.9592 20.1118 7.32539 20.1118 6.87268V4.94862C20.1118 3.74892 19.1271 2.76426 17.9275 2.76426H16.0035C15.562 2.76426 14.9169 2.52659 14.5774 2.23232L12.7891 0.69308C12.0082 0.0253212 10.7293 0.0253212 9.93701 0.69308L8.16009 2.24364C7.82055 2.52659 7.17542 2.76426 6.73402 2.76426H4.77602C3.57632 2.76426 2.59165 3.74892 2.59165 4.94862V6.88399C2.59165 7.32539 2.35398 7.9592 2.07103 8.29873L0.543111 10.0983C-0.113329 10.8792 -0.113329 12.1468 0.543111 12.9278L2.07103 14.7273C2.35398 15.0669 2.59165 15.7006 2.59165 16.142V18.0774C2.59165 19.2771 3.57632 20.2618 4.77602 20.2618H6.73402C7.17542 20.2618 7.82055 20.4995 8.16009 20.7938L9.94832 22.333C10.7293 23.0007 12.0082 23.0007 12.8004 22.333L14.5887 20.7938C14.9282 20.4995 15.562 20.2618 16.0148 20.2618H17.9388C19.1384 20.2618 20.1231 19.2771 20.1231 18.0774V16.1533C20.1231 15.712 20.3608 15.0669 20.6551 14.7273L22.1943 12.9391C22.8507 12.1581 22.8507 10.8679 22.183 10.087ZM16.0713 9.37393L10.6048 14.8405C10.4463 14.9989 10.2313 15.0895 10.005 15.0895C9.7786 15.0895 9.56355 14.9989 9.40504 14.8405L6.66611 12.1016C6.33789 11.7734 6.33789 11.2301 6.66611 10.9019C6.99433 10.5736 7.5376 10.5736 7.86582 10.9019L10.005 13.041L14.8717 8.17424C15.1999 7.84602 15.7431 7.84602 16.0713 8.17424C16.3995 8.50246 16.3995 9.04572 16.0713 9.37393Z" fill="white"/>
</g>
<defs>
<clipPath id="clip0_1547_2934">
<rect width="23.9583" height="23" fill="white" transform="translate(-0.480469 0.0350342)"/>
</clipPath>
</defs>
</svg>
