<svg width="435" height="72" viewBox="0 0 435 72" fill="none" xmlns="http://www.w3.org/2000/svg">
<path fill-rule="evenodd" clip-rule="evenodd" d="M15.7402 7.67212L6.22524 18.1681L0.323242 12.7361L1.67724 11.2641L6.09624 15.3321L14.2592 6.32812L15.7412 7.67212H15.7402Z" fill="white"/>
<path d="M37.568 18.192C36.8747 18.192 36.2347 18.0693 35.648 17.824C35.072 17.5787 34.576 17.2267 34.16 16.768C33.744 16.2987 33.4187 15.728 33.184 15.056C32.9493 14.3733 32.832 13.6053 32.832 12.752C32.832 11.9093 32.9493 11.152 33.184 10.48C33.4293 9.808 33.7653 9.23733 34.192 8.768C34.6187 8.29867 35.1253 7.94133 35.712 7.696C36.3093 7.44 36.9547 7.312 37.648 7.312C38.0107 7.312 38.3413 7.34933 38.64 7.424C38.9493 7.49867 39.2267 7.6 39.472 7.728C39.728 7.84533 39.952 7.984 40.144 8.144C40.3467 8.29333 40.5227 8.448 40.672 8.608L39.936 9.472C39.6693 9.19467 39.36 8.96 39.008 8.768C38.656 8.576 38.2133 8.48 37.68 8.48C37.1467 8.48 36.6667 8.58133 36.24 8.784C35.8133 8.976 35.4507 9.25867 35.152 9.632C34.8533 9.99467 34.6187 10.4373 34.448 10.96C34.288 11.4827 34.208 12.0693 34.208 12.72C34.208 13.3813 34.2827 13.9787 34.432 14.512C34.592 15.0347 34.816 15.4827 35.104 15.856C35.4027 16.2293 35.7653 16.5173 36.192 16.72C36.6293 16.9227 37.1307 17.024 37.696 17.024C38.0693 17.024 38.4213 16.9707 38.752 16.864C39.0933 16.7467 39.3707 16.592 39.584 16.4V13.664H37.36V12.56H40.8V16.976C40.4587 17.328 40.0107 17.6213 39.456 17.856C38.9013 18.08 38.272 18.192 37.568 18.192ZM44.979 18.192C44.3283 18.192 43.7843 18 43.347 17.616C42.9203 17.232 42.707 16.688 42.707 15.984C42.707 15.1307 43.0857 14.48 43.843 14.032C44.6003 13.5733 45.811 13.2533 47.475 13.072C47.475 12.8267 47.4483 12.5867 47.395 12.352C47.3523 12.1173 47.2723 11.9093 47.155 11.728C47.0377 11.5467 46.8723 11.4027 46.659 11.296C46.4563 11.1787 46.195 11.12 45.875 11.12C45.427 11.12 45.0057 11.2053 44.611 11.376C44.2163 11.5467 43.8643 11.7387 43.555 11.952L43.043 11.04C43.4057 10.8053 43.8483 10.5813 44.371 10.368C44.8937 10.144 45.4697 10.032 46.099 10.032C47.0483 10.032 47.7363 10.3253 48.163 10.912C48.5897 11.488 48.803 12.2613 48.803 13.232V18H47.715L47.603 17.072H47.555C47.1817 17.3813 46.7817 17.648 46.355 17.872C45.9283 18.0853 45.4697 18.192 44.979 18.192ZM45.363 17.136C45.7363 17.136 46.0883 17.0507 46.419 16.88C46.7497 16.6987 47.1017 16.4373 47.475 16.096V13.936C46.8243 14.0213 46.275 14.1227 45.827 14.24C45.3897 14.3573 45.0323 14.496 44.755 14.656C44.4883 14.816 44.291 15.0027 44.163 15.216C44.0457 15.4187 43.987 15.6427 43.987 15.888C43.987 16.336 44.1203 16.656 44.387 16.848C44.6537 17.04 44.979 17.136 45.363 17.136ZM51.2495 10.224H52.5615V18H51.2495V10.224ZM51.9215 8.624C51.6655 8.624 51.4468 8.544 51.2655 8.384C51.0948 8.224 51.0095 8.02133 51.0095 7.776C51.0095 7.52 51.0948 7.31733 51.2655 7.168C51.4468 7.008 51.6655 6.928 51.9215 6.928C52.1775 6.928 52.3908 7.008 52.5615 7.168C52.7428 7.31733 52.8335 7.52 52.8335 7.776C52.8335 8.02133 52.7428 8.224 52.5615 8.384C52.3908 8.544 52.1775 8.624 51.9215 8.624ZM55.187 10.224H56.275L56.387 11.344H56.435C56.8083 10.9707 57.1977 10.6613 57.603 10.416C58.019 10.16 58.499 10.032 59.043 10.032C59.8643 10.032 60.4617 10.288 60.835 10.8C61.219 11.312 61.411 12.0693 61.411 13.072V18H60.099V13.248C60.099 12.512 59.9817 11.984 59.747 11.664C59.5123 11.3333 59.139 11.168 58.627 11.168C58.2217 11.168 57.8643 11.2693 57.555 11.472C57.2457 11.6747 56.8937 11.9733 56.499 12.368V18H55.187V10.224ZM68.9321 18.192C68.2815 18.192 67.7375 18 67.3001 17.616C66.8735 17.232 66.6601 16.688 66.6601 15.984C66.6601 15.1307 67.0388 14.48 67.7961 14.032C68.5535 13.5733 69.7641 13.2533 71.4281 13.072C71.4281 12.8267 71.4015 12.5867 71.3481 12.352C71.3055 12.1173 71.2255 11.9093 71.1081 11.728C70.9908 11.5467 70.8255 11.4027 70.6121 11.296C70.4095 11.1787 70.1481 11.12 69.8281 11.12C69.3801 11.12 68.9588 11.2053 68.5641 11.376C68.1695 11.5467 67.8175 11.7387 67.5081 11.952L66.9961 11.04C67.3588 10.8053 67.8015 10.5813 68.3241 10.368C68.8468 10.144 69.4228 10.032 70.0521 10.032C71.0015 10.032 71.6895 10.3253 72.1161 10.912C72.5428 11.488 72.7561 12.2613 72.7561 13.232V18H71.6681L71.5561 17.072H71.5081C71.1348 17.3813 70.7348 17.648 70.3081 17.872C69.8815 18.0853 69.4228 18.192 68.9321 18.192ZM69.3161 17.136C69.6895 17.136 70.0415 17.0507 70.3721 16.88C70.7028 16.6987 71.0548 16.4373 71.4281 16.096V13.936C70.7775 14.0213 70.2281 14.1227 69.7801 14.24C69.3428 14.3573 68.9855 14.496 68.7081 14.656C68.4415 14.816 68.2441 15.0027 68.1161 15.216C67.9988 15.4187 67.9401 15.6427 67.9401 15.888C67.9401 16.336 68.0735 16.656 68.3401 16.848C68.6068 17.04 68.9321 17.136 69.3161 17.136ZM75.2026 10.224H76.2906L76.4026 11.344H76.4506C76.824 10.9707 77.2133 10.6613 77.6186 10.416C78.0346 10.16 78.5146 10.032 79.0586 10.032C79.88 10.032 80.4773 10.288 80.8506 10.8C81.2346 11.312 81.4266 12.0693 81.4266 13.072V18H80.1146V13.248C80.1146 12.512 79.9973 11.984 79.7626 11.664C79.528 11.3333 79.1546 11.168 78.6426 11.168C78.2373 11.168 77.88 11.2693 77.5706 11.472C77.2613 11.6747 76.9093 11.9733 76.5146 12.368V18H75.2026V10.224ZM87.1558 10.224H88.4678V18H87.1558V10.224ZM87.8278 8.624C87.5718 8.624 87.3531 8.544 87.1718 8.384C87.0011 8.224 86.9158 8.02133 86.9158 7.776C86.9158 7.52 87.0011 7.31733 87.1718 7.168C87.3531 7.008 87.5718 6.928 87.8278 6.928C88.0838 6.928 88.2971 7.008 88.4678 7.168C88.6491 7.31733 88.7398 7.52 88.7398 7.776C88.7398 8.02133 88.6491 8.224 88.4678 8.384C88.2971 8.544 88.0838 8.624 87.8278 8.624ZM91.0933 10.224H92.1813L92.2933 11.344H92.3413C92.6826 10.9707 93.0506 10.6613 93.4453 10.416C93.8506 10.16 94.2879 10.032 94.7573 10.032C95.3546 10.032 95.8186 10.1653 96.1493 10.432C96.4906 10.688 96.7413 11.0507 96.9013 11.52C97.3066 11.072 97.7119 10.7147 98.1173 10.448C98.5333 10.1707 98.9813 10.032 99.4613 10.032C100.261 10.032 100.853 10.288 101.237 10.8C101.632 11.312 101.829 12.0693 101.829 13.072V18H100.517V13.248C100.517 12.512 100.4 11.984 100.165 11.664C99.9306 11.3333 99.5679 11.168 99.0773 11.168C98.4906 11.168 97.8399 11.568 97.1253 12.368V18H95.8133V13.248C95.8133 12.512 95.6959 11.984 95.4613 11.664C95.2266 11.3333 94.8586 11.168 94.3573 11.168C93.7706 11.168 93.1199 11.568 92.4053 12.368V18H91.0933V10.224ZM104.359 10.224H105.447L105.559 11.344H105.607C105.948 10.9707 106.316 10.6613 106.711 10.416C107.116 10.16 107.554 10.032 108.023 10.032C108.62 10.032 109.084 10.1653 109.415 10.432C109.756 10.688 110.007 11.0507 110.167 11.52C110.572 11.072 110.978 10.7147 111.383 10.448C111.799 10.1707 112.247 10.032 112.727 10.032C113.527 10.032 114.119 10.288 114.503 10.8C114.898 11.312 115.095 12.0693 115.095 13.072V18H113.783V13.248C113.783 12.512 113.666 11.984 113.431 11.664C113.196 11.3333 112.834 11.168 112.343 11.168C111.756 11.168 111.106 11.568 110.391 12.368V18H109.079V13.248C109.079 12.512 108.962 11.984 108.727 11.664C108.492 11.3333 108.124 11.168 107.623 11.168C107.036 11.168 106.386 11.568 105.671 12.368V18H104.359V10.224ZM120.777 18.192C120.254 18.192 119.763 18.1013 119.305 17.92C118.857 17.728 118.462 17.4613 118.121 17.12C117.79 16.768 117.529 16.3413 117.337 15.84C117.145 15.3387 117.049 14.768 117.049 14.128C117.049 13.488 117.145 12.9173 117.337 12.416C117.539 11.904 117.801 11.472 118.121 11.12C118.451 10.768 118.825 10.5013 119.241 10.32C119.657 10.128 120.089 10.032 120.536 10.032C121.027 10.032 121.465 10.1173 121.849 10.288C122.243 10.4587 122.569 10.704 122.825 11.024C123.091 11.344 123.294 11.728 123.433 12.176C123.571 12.624 123.641 13.1253 123.641 13.68C123.641 13.8187 123.635 13.9573 123.625 14.096C123.625 14.224 123.614 14.336 123.593 14.432H118.345C118.398 15.264 118.654 15.9253 119.113 16.416C119.582 16.896 120.19 17.136 120.937 17.136C121.31 17.136 121.651 17.0827 121.961 16.976C122.281 16.8587 122.585 16.7093 122.873 16.528L123.337 17.392C122.995 17.6053 122.617 17.792 122.201 17.952C121.785 18.112 121.31 18.192 120.777 18.192ZM122.489 13.488C122.489 12.6987 122.318 12.1013 121.977 11.696C121.646 11.28 121.177 11.072 120.569 11.072C120.291 11.072 120.025 11.1253 119.769 11.232C119.523 11.3387 119.299 11.4987 119.097 11.712C118.894 11.9147 118.723 12.1653 118.585 12.464C118.457 12.7627 118.371 13.104 118.329 13.488H122.489ZM125.562 10.224H126.65L126.762 11.632H126.81C127.077 11.1413 127.397 10.752 127.77 10.464C128.154 10.176 128.57 10.032 129.018 10.032C129.327 10.032 129.605 10.0853 129.85 10.192L129.594 11.344C129.466 11.3013 129.349 11.2693 129.242 11.248C129.135 11.2267 129.002 11.216 128.842 11.216C128.511 11.216 128.165 11.3493 127.802 11.616C127.45 11.8827 127.141 12.3467 126.874 13.008V18H125.562V10.224ZM133.078 18.192C132.524 18.192 131.996 18.0907 131.494 17.888C130.993 17.6853 130.556 17.4293 130.182 17.12L130.838 16.24C131.18 16.5173 131.526 16.7413 131.878 16.912C132.241 17.0827 132.657 17.168 133.126 17.168C133.638 17.168 134.022 17.0507 134.278 16.816C134.534 16.5813 134.662 16.2933 134.662 15.952C134.662 15.7493 134.609 15.5733 134.502 15.424C134.396 15.2747 134.257 15.1467 134.086 15.04C133.926 14.9227 133.74 14.8213 133.526 14.736C133.313 14.6507 133.1 14.5653 132.886 14.48C132.609 14.384 132.332 14.2773 132.054 14.16C131.777 14.032 131.526 13.8827 131.302 13.712C131.089 13.5307 130.913 13.3227 130.774 13.088C130.636 12.8533 130.566 12.5707 130.566 12.24C130.566 11.9307 130.625 11.6427 130.742 11.376C130.87 11.0987 131.046 10.864 131.27 10.672C131.505 10.4693 131.788 10.3147 132.118 10.208C132.449 10.0907 132.822 10.032 133.238 10.032C133.729 10.032 134.177 10.1173 134.582 10.288C134.998 10.4587 135.356 10.6667 135.654 10.912L135.03 11.744C134.764 11.5413 134.486 11.376 134.198 11.248C133.91 11.12 133.596 11.056 133.254 11.056C132.764 11.056 132.401 11.168 132.166 11.392C131.942 11.616 131.83 11.8773 131.83 12.176C131.83 12.3573 131.878 12.5173 131.974 12.656C132.07 12.784 132.198 12.9013 132.358 13.008C132.518 13.104 132.7 13.1947 132.902 13.28C133.116 13.3547 133.334 13.4347 133.558 13.52C133.836 13.6267 134.113 13.7387 134.39 13.856C134.678 13.9733 134.934 14.1227 135.158 14.304C135.382 14.4747 135.564 14.688 135.702 14.944C135.852 15.2 135.926 15.5093 135.926 15.872C135.926 16.192 135.862 16.4907 135.734 16.768C135.617 17.0453 135.436 17.2907 135.19 17.504C134.956 17.7173 134.657 17.8827 134.294 18C133.942 18.128 133.537 18.192 133.078 18.192ZM137.75 10.224H139.062V18H137.75V10.224ZM138.422 8.624C138.166 8.624 137.947 8.544 137.766 8.384C137.595 8.224 137.51 8.02133 137.51 7.776C137.51 7.52 137.595 7.31733 137.766 7.168C137.947 7.008 138.166 6.928 138.422 6.928C138.678 6.928 138.891 7.008 139.062 7.168C139.243 7.31733 139.334 7.52 139.334 7.776C139.334 8.02133 139.243 8.224 139.062 8.384C138.891 8.544 138.678 8.624 138.422 8.624ZM140.567 10.224H141.927L143.399 14.64C143.516 15.024 143.634 15.408 143.751 15.792C143.879 16.176 144.002 16.5547 144.119 16.928H144.183C144.3 16.5547 144.418 16.176 144.535 15.792C144.652 15.408 144.77 15.024 144.887 14.64L146.359 10.224H147.655L144.903 18H143.367L140.567 10.224ZM152.245 18.192C151.723 18.192 151.232 18.1013 150.773 17.92C150.325 17.728 149.931 17.4613 149.589 17.12C149.259 16.768 148.997 16.3413 148.805 15.84C148.613 15.3387 148.517 14.768 148.517 14.128C148.517 13.488 148.613 12.9173 148.805 12.416C149.008 11.904 149.269 11.472 149.589 11.12C149.92 10.768 150.293 10.5013 150.709 10.32C151.125 10.128 151.557 10.032 152.005 10.032C152.496 10.032 152.933 10.1173 153.317 10.288C153.712 10.4587 154.037 10.704 154.293 11.024C154.56 11.344 154.763 11.728 154.901 12.176C155.04 12.624 155.109 13.1253 155.109 13.68C155.109 13.8187 155.104 13.9573 155.093 14.096C155.093 14.224 155.083 14.336 155.061 14.432H149.813C149.867 15.264 150.123 15.9253 150.581 16.416C151.051 16.896 151.659 17.136 152.405 17.136C152.779 17.136 153.12 17.0827 153.429 16.976C153.749 16.8587 154.053 16.7093 154.341 16.528L154.805 17.392C154.464 17.6053 154.085 17.792 153.669 17.952C153.253 18.112 152.779 18.192 152.245 18.192ZM153.957 13.488C153.957 12.6987 153.787 12.1013 153.445 11.696C153.115 11.28 152.645 11.072 152.037 11.072C151.76 11.072 151.493 11.1253 151.237 11.232C150.992 11.3387 150.768 11.4987 150.565 11.712C150.363 11.9147 150.192 12.1653 150.053 12.464C149.925 12.7627 149.84 13.104 149.797 13.488H153.957ZM162.506 18.192C161.674 18.192 161.066 17.936 160.682 17.424C160.309 16.912 160.122 16.1547 160.122 15.152V10.224H161.45V14.976C161.45 15.712 161.562 16.2453 161.786 16.576C162.021 16.896 162.394 17.056 162.906 17.056C163.311 17.056 163.669 16.9547 163.978 16.752C164.287 16.5387 164.629 16.2027 165.002 15.744V10.224H166.314V18H165.226L165.114 16.784H165.066C164.703 17.2107 164.319 17.552 163.914 17.808C163.519 18.064 163.05 18.192 162.506 18.192ZM168.937 10.224H170.025L170.137 11.344H170.185C170.558 10.9707 170.948 10.6613 171.353 10.416C171.769 10.16 172.249 10.032 172.793 10.032C173.614 10.032 174.212 10.288 174.585 10.8C174.969 11.312 175.161 12.0693 175.161 13.072V18H173.849V13.248C173.849 12.512 173.732 11.984 173.497 11.664C173.262 11.3333 172.889 11.168 172.377 11.168C171.972 11.168 171.614 11.2693 171.305 11.472C170.996 11.6747 170.644 11.9733 170.249 12.368V18H168.937V10.224ZM180.343 18.192C179.362 18.192 178.578 17.84 177.991 17.136C177.415 16.432 177.127 15.4293 177.127 14.128C177.127 13.4987 177.218 12.9333 177.399 12.432C177.591 11.92 177.842 11.488 178.151 11.136C178.46 10.784 178.818 10.512 179.223 10.32C179.628 10.128 180.055 10.032 180.503 10.032C180.951 10.032 181.34 10.112 181.671 10.272C182.002 10.432 182.338 10.6507 182.679 10.928L182.615 9.6V6.608H183.943V18H182.855L182.743 17.088H182.695C182.386 17.3867 182.028 17.648 181.623 17.872C181.228 18.0853 180.802 18.192 180.343 18.192ZM180.631 17.088C180.994 17.088 181.335 17.0027 181.655 16.832C181.975 16.6507 182.295 16.3787 182.615 16.016V11.952C182.284 11.6533 181.964 11.4453 181.655 11.328C181.356 11.2 181.047 11.136 180.727 11.136C180.418 11.136 180.124 11.2107 179.847 11.36C179.58 11.4987 179.346 11.7013 179.143 11.968C178.94 12.224 178.78 12.5333 178.663 12.896C178.546 13.2587 178.487 13.664 178.487 14.112C178.487 15.0507 178.674 15.7813 179.047 16.304C179.42 16.8267 179.948 17.088 180.631 17.088ZM189.714 18.192C189.191 18.192 188.701 18.1013 188.242 17.92C187.794 17.728 187.399 17.4613 187.058 17.12C186.727 16.768 186.466 16.3413 186.274 15.84C186.082 15.3387 185.986 14.768 185.986 14.128C185.986 13.488 186.082 12.9173 186.274 12.416C186.477 11.904 186.738 11.472 187.058 11.12C187.389 10.768 187.762 10.5013 188.178 10.32C188.594 10.128 189.026 10.032 189.474 10.032C189.965 10.032 190.402 10.1173 190.786 10.288C191.181 10.4587 191.506 10.704 191.762 11.024C192.029 11.344 192.231 11.728 192.37 12.176C192.509 12.624 192.578 13.1253 192.578 13.68C192.578 13.8187 192.573 13.9573 192.562 14.096C192.562 14.224 192.551 14.336 192.53 14.432H187.282C187.335 15.264 187.591 15.9253 188.05 16.416C188.519 16.896 189.127 17.136 189.874 17.136C190.247 17.136 190.589 17.0827 190.898 16.976C191.218 16.8587 191.522 16.7093 191.81 16.528L192.274 17.392C191.933 17.6053 191.554 17.792 191.138 17.952C190.722 18.112 190.247 18.192 189.714 18.192ZM191.426 13.488C191.426 12.6987 191.255 12.1013 190.914 11.696C190.583 11.28 190.114 11.072 189.506 11.072C189.229 11.072 188.962 11.1253 188.706 11.232C188.461 11.3387 188.237 11.4987 188.034 11.712C187.831 11.9147 187.661 12.1653 187.522 12.464C187.394 12.7627 187.309 13.104 187.266 13.488H191.426ZM194.5 10.224H195.588L195.7 11.632H195.748C196.014 11.1413 196.334 10.752 196.708 10.464C197.092 10.176 197.508 10.032 197.956 10.032C198.265 10.032 198.542 10.0853 198.788 10.192L198.532 11.344C198.404 11.3013 198.286 11.2693 198.18 11.248C198.073 11.2267 197.94 11.216 197.78 11.216C197.449 11.216 197.102 11.3493 196.74 11.616C196.388 11.8827 196.078 12.3467 195.812 13.008V18H194.5V10.224ZM202.016 18.192C201.461 18.192 200.933 18.0907 200.432 17.888C199.931 17.6853 199.493 17.4293 199.12 17.12L199.776 16.24C200.117 16.5173 200.464 16.7413 200.816 16.912C201.179 17.0827 201.595 17.168 202.064 17.168C202.576 17.168 202.96 17.0507 203.216 16.816C203.472 16.5813 203.6 16.2933 203.6 15.952C203.6 15.7493 203.547 15.5733 203.44 15.424C203.333 15.2747 203.195 15.1467 203.024 15.04C202.864 14.9227 202.677 14.8213 202.464 14.736C202.251 14.6507 202.037 14.5653 201.824 14.48C201.547 14.384 201.269 14.2773 200.992 14.16C200.715 14.032 200.464 13.8827 200.24 13.712C200.027 13.5307 199.851 13.3227 199.712 13.088C199.573 12.8533 199.504 12.5707 199.504 12.24C199.504 11.9307 199.563 11.6427 199.68 11.376C199.808 11.0987 199.984 10.864 200.208 10.672C200.443 10.4693 200.725 10.3147 201.056 10.208C201.387 10.0907 201.76 10.032 202.176 10.032C202.667 10.032 203.115 10.1173 203.52 10.288C203.936 10.4587 204.293 10.6667 204.592 10.912L203.968 11.744C203.701 11.5413 203.424 11.376 203.136 11.248C202.848 11.12 202.533 11.056 202.192 11.056C201.701 11.056 201.339 11.168 201.104 11.392C200.88 11.616 200.768 11.8773 200.768 12.176C200.768 12.3573 200.816 12.5173 200.912 12.656C201.008 12.784 201.136 12.9013 201.296 13.008C201.456 13.104 201.637 13.1947 201.84 13.28C202.053 13.3547 202.272 13.4347 202.496 13.52C202.773 13.6267 203.051 13.7387 203.328 13.856C203.616 13.9733 203.872 14.1227 204.096 14.304C204.32 14.4747 204.501 14.688 204.64 14.944C204.789 15.2 204.864 15.5093 204.864 15.872C204.864 16.192 204.8 16.4907 204.672 16.768C204.555 17.0453 204.373 17.2907 204.128 17.504C203.893 17.7173 203.595 17.8827 203.232 18C202.88 18.128 202.475 18.192 202.016 18.192ZM208.823 18.192C208.407 18.192 208.055 18.128 207.767 18C207.489 17.872 207.26 17.696 207.079 17.472C206.908 17.248 206.785 16.976 206.711 16.656C206.636 16.336 206.599 15.984 206.599 15.6V11.296H205.447V10.304L206.663 10.224L206.823 8.048H207.927V10.224H210.023V11.296H207.927V15.616C207.927 16.096 208.012 16.4693 208.183 16.736C208.364 16.992 208.679 17.12 209.127 17.12C209.265 17.12 209.415 17.0987 209.575 17.056C209.735 17.0133 209.879 16.9653 210.007 16.912L210.263 17.904C210.049 17.9787 209.815 18.0427 209.559 18.096C209.313 18.16 209.068 18.192 208.823 18.192ZM213.229 18.192C212.578 18.192 212.034 18 211.597 17.616C211.17 17.232 210.957 16.688 210.957 15.984C210.957 15.1307 211.336 14.48 212.093 14.032C212.85 13.5733 214.061 13.2533 215.725 13.072C215.725 12.8267 215.698 12.5867 215.645 12.352C215.602 12.1173 215.522 11.9093 215.405 11.728C215.288 11.5467 215.122 11.4027 214.909 11.296C214.706 11.1787 214.445 11.12 214.125 11.12C213.677 11.12 213.256 11.2053 212.861 11.376C212.466 11.5467 212.114 11.7387 211.805 11.952L211.293 11.04C211.656 10.8053 212.098 10.5813 212.621 10.368C213.144 10.144 213.72 10.032 214.349 10.032C215.298 10.032 215.986 10.3253 216.413 10.912C216.84 11.488 217.053 12.2613 217.053 13.232V18H215.965L215.853 17.072H215.805C215.432 17.3813 215.032 17.648 214.605 17.872C214.178 18.0853 213.72 18.192 213.229 18.192ZM213.613 17.136C213.986 17.136 214.338 17.0507 214.669 16.88C215 16.6987 215.352 16.4373 215.725 16.096V13.936C215.074 14.0213 214.525 14.1227 214.077 14.24C213.64 14.3573 213.282 14.496 213.005 14.656C212.738 14.816 212.541 15.0027 212.413 15.216C212.296 15.4187 212.237 15.6427 212.237 15.888C212.237 16.336 212.37 16.656 212.637 16.848C212.904 17.04 213.229 17.136 213.613 17.136ZM219.5 10.224H220.588L220.7 11.344H220.748C221.121 10.9707 221.51 10.6613 221.916 10.416C222.332 10.16 222.812 10.032 223.356 10.032C224.177 10.032 224.774 10.288 225.148 10.8C225.532 11.312 225.724 12.0693 225.724 13.072V18H224.412V13.248C224.412 12.512 224.294 11.984 224.06 11.664C223.825 11.3333 223.452 11.168 222.94 11.168C222.534 11.168 222.177 11.2693 221.868 11.472C221.558 11.6747 221.206 11.9733 220.812 12.368V18H219.5V10.224ZM230.906 18.192C229.924 18.192 229.14 17.84 228.554 17.136C227.978 16.432 227.69 15.4293 227.69 14.128C227.69 13.4987 227.78 12.9333 227.962 12.432C228.154 11.92 228.404 11.488 228.714 11.136C229.023 10.784 229.38 10.512 229.786 10.32C230.191 10.128 230.618 10.032 231.066 10.032C231.514 10.032 231.903 10.112 232.234 10.272C232.564 10.432 232.9 10.6507 233.242 10.928L233.178 9.6V6.608H234.506V18H233.418L233.306 17.088H233.258C232.948 17.3867 232.591 17.648 232.186 17.872C231.791 18.0853 231.364 18.192 230.906 18.192ZM231.194 17.088C231.556 17.088 231.898 17.0027 232.218 16.832C232.538 16.6507 232.858 16.3787 233.178 16.016V11.952C232.847 11.6533 232.527 11.4453 232.218 11.328C231.919 11.2 231.61 11.136 231.29 11.136C230.98 11.136 230.687 11.2107 230.41 11.36C230.143 11.4987 229.908 11.7013 229.706 11.968C229.503 12.224 229.343 12.5333 229.226 12.896C229.108 13.2587 229.049 13.664 229.049 14.112C229.049 15.0507 229.236 15.7813 229.61 16.304C229.983 16.8267 230.511 17.088 231.194 17.088ZM237.125 10.224H238.437V18H237.125V10.224ZM237.797 8.624C237.541 8.624 237.322 8.544 237.141 8.384C236.97 8.224 236.885 8.02133 236.885 7.776C236.885 7.52 236.97 7.31733 237.141 7.168C237.322 7.008 237.541 6.928 237.797 6.928C238.053 6.928 238.266 7.008 238.437 7.168C238.618 7.31733 238.709 7.52 238.709 7.776C238.709 8.02133 238.618 8.224 238.437 8.384C238.266 8.544 238.053 8.624 237.797 8.624ZM241.062 10.224H242.15L242.262 11.344H242.31C242.683 10.9707 243.073 10.6613 243.478 10.416C243.894 10.16 244.374 10.032 244.918 10.032C245.739 10.032 246.337 10.288 246.71 10.8C247.094 11.312 247.286 12.0693 247.286 13.072V18H245.974V13.248C245.974 12.512 245.857 11.984 245.622 11.664C245.387 11.3333 245.014 11.168 244.502 11.168C244.097 11.168 243.739 11.2693 243.43 11.472C243.121 11.6747 242.769 11.9733 242.374 12.368V18H241.062V10.224ZM252.436 21.584C251.956 21.584 251.519 21.536 251.124 21.44C250.729 21.3547 250.388 21.2213 250.1 21.04C249.823 20.8587 249.604 20.64 249.444 20.384C249.295 20.128 249.22 19.8293 249.22 19.488C249.22 19.1573 249.321 18.8427 249.524 18.544C249.727 18.2453 250.004 17.9733 250.356 17.728V17.664C250.164 17.5467 249.999 17.3867 249.86 17.184C249.732 16.9707 249.668 16.7093 249.668 16.4C249.668 16.0693 249.759 15.7813 249.94 15.536C250.121 15.2907 250.313 15.0987 250.516 14.96V14.896C250.26 14.6827 250.025 14.4 249.812 14.048C249.609 13.6853 249.508 13.2693 249.508 12.8C249.508 12.3733 249.583 11.9893 249.732 11.648C249.892 11.3067 250.105 11.0187 250.372 10.784C250.639 10.5387 250.948 10.352 251.3 10.224C251.663 10.096 252.041 10.032 252.436 10.032C252.649 10.032 252.847 10.0533 253.028 10.096C253.22 10.128 253.391 10.1707 253.54 10.224H256.244V11.232H254.644C254.825 11.4133 254.975 11.6427 255.092 11.92C255.22 12.1973 255.284 12.5013 255.284 12.832C255.284 13.248 255.209 13.6267 255.06 13.968C254.911 14.2987 254.708 14.5813 254.452 14.816C254.196 15.04 253.892 15.216 253.54 15.344C253.199 15.472 252.831 15.536 252.436 15.536C252.244 15.536 252.047 15.5147 251.844 15.472C251.641 15.4187 251.449 15.3493 251.268 15.264C251.129 15.3813 251.012 15.5147 250.916 15.664C250.82 15.8027 250.772 15.9787 250.772 16.192C250.772 16.4373 250.868 16.64 251.06 16.8C251.252 16.96 251.615 17.04 252.148 17.04H253.652C254.559 17.04 255.236 17.1893 255.684 17.488C256.143 17.776 256.372 18.2453 256.372 18.896C256.372 19.2587 256.281 19.6 256.1 19.92C255.919 20.2507 255.657 20.5387 255.316 20.784C254.975 21.0293 254.559 21.2213 254.068 21.36C253.588 21.5093 253.044 21.584 252.436 21.584ZM252.436 14.656C252.66 14.656 252.868 14.6133 253.06 14.528C253.263 14.4427 253.439 14.32 253.588 14.16C253.748 14 253.871 13.808 253.956 13.584C254.041 13.3493 254.084 13.088 254.084 12.8C254.084 12.224 253.924 11.7813 253.604 11.472C253.284 11.152 252.895 10.992 252.436 10.992C251.977 10.992 251.588 11.152 251.268 11.472C250.948 11.7813 250.788 12.224 250.788 12.8C250.788 13.088 250.831 13.3493 250.916 13.584C251.001 13.808 251.119 14 251.268 14.16C251.428 14.32 251.604 14.4427 251.796 14.528C251.999 14.6133 252.212 14.656 252.436 14.656ZM252.628 20.672C253.001 20.672 253.337 20.624 253.636 20.528C253.945 20.4427 254.207 20.3253 254.42 20.176C254.633 20.0373 254.799 19.872 254.916 19.68C255.033 19.488 255.092 19.2907 255.092 19.088C255.092 18.7253 254.959 18.4747 254.692 18.336C254.425 18.1973 254.036 18.128 253.524 18.128H252.18C252.031 18.128 251.865 18.1173 251.684 18.096C251.513 18.0853 251.343 18.0533 251.172 18C250.895 18.2027 250.692 18.416 250.564 18.64C250.436 18.864 250.372 19.088 250.372 19.312C250.372 19.728 250.569 20.0587 250.964 20.304C251.369 20.5493 251.924 20.672 252.628 20.672ZM264.102 18.192C263.622 18.192 263.163 18.1013 262.726 17.92C262.299 17.7387 261.92 17.4773 261.59 17.136C261.259 16.784 260.992 16.3573 260.79 15.856C260.598 15.344 260.502 14.768 260.502 14.128C260.502 13.4773 260.598 12.9013 260.79 12.4C260.992 11.888 261.259 11.456 261.59 11.104C261.92 10.752 262.299 10.4853 262.726 10.304C263.163 10.1227 263.622 10.032 264.102 10.032C264.582 10.032 265.035 10.1227 265.462 10.304C265.899 10.4853 266.283 10.752 266.614 11.104C266.944 11.456 267.206 11.888 267.398 12.4C267.6 12.9013 267.702 13.4773 267.702 14.128C267.702 14.768 267.6 15.344 267.398 15.856C267.206 16.3573 266.944 16.784 266.614 17.136C266.283 17.4773 265.899 17.7387 265.462 17.92C265.035 18.1013 264.582 18.192 264.102 18.192ZM264.102 17.104C264.432 17.104 264.736 17.0347 265.014 16.896C265.291 16.7467 265.526 16.544 265.718 16.288C265.92 16.0213 266.075 15.7067 266.182 15.344C266.288 14.9813 266.342 14.576 266.342 14.128C266.342 13.68 266.288 13.2747 266.182 12.912C266.075 12.5387 265.92 12.2187 265.718 11.952C265.526 11.6853 265.291 11.4827 265.014 11.344C264.736 11.1947 264.432 11.12 264.102 11.12C263.771 11.12 263.467 11.1947 263.19 11.344C262.912 11.4827 262.672 11.6853 262.47 11.952C262.278 12.2187 262.128 12.5387 262.022 12.912C261.915 13.2747 261.862 13.68 261.862 14.128C261.862 14.576 261.915 14.9813 262.022 15.344C262.128 15.7067 262.278 16.0213 262.47 16.288C262.672 16.544 262.912 16.7467 263.19 16.896C263.467 17.0347 263.771 17.104 264.102 17.104ZM273.254 7.68C272.966 7.552 272.672 7.488 272.374 7.488C271.648 7.488 271.286 7.98933 271.286 8.992V10.224H272.934V11.296H271.286V18H269.974V11.296H268.918V10.304L269.974 10.224V8.992C269.974 8.192 270.155 7.56267 270.518 7.104C270.891 6.64533 271.467 6.416 272.246 6.416C272.491 6.416 272.72 6.44267 272.934 6.496C273.158 6.53867 273.36 6.59733 273.542 6.672L273.254 7.68ZM280.777 18.192C280.254 18.192 279.763 18.1013 279.305 17.92C278.857 17.728 278.462 17.4613 278.121 17.12C277.79 16.768 277.529 16.3413 277.337 15.84C277.145 15.3387 277.049 14.768 277.049 14.128C277.049 13.488 277.145 12.9173 277.337 12.416C277.539 11.904 277.801 11.472 278.121 11.12C278.451 10.768 278.825 10.5013 279.241 10.32C279.657 10.128 280.089 10.032 280.536 10.032C281.027 10.032 281.465 10.1173 281.849 10.288C282.243 10.4587 282.569 10.704 282.825 11.024C283.091 11.344 283.294 11.728 283.433 12.176C283.571 12.624 283.641 13.1253 283.641 13.68C283.641 13.8187 283.635 13.9573 283.625 14.096C283.625 14.224 283.614 14.336 283.593 14.432H278.345C278.398 15.264 278.654 15.9253 279.113 16.416C279.582 16.896 280.19 17.136 280.937 17.136C281.31 17.136 281.651 17.0827 281.961 16.976C282.281 16.8587 282.585 16.7093 282.873 16.528L283.337 17.392C282.995 17.6053 282.617 17.792 282.201 17.952C281.785 18.112 281.31 18.192 280.777 18.192ZM282.489 13.488C282.489 12.6987 282.318 12.1013 281.977 11.696C281.646 11.28 281.177 11.072 280.569 11.072C280.291 11.072 280.025 11.1253 279.769 11.232C279.523 11.3387 279.299 11.4987 279.097 11.712C278.894 11.9147 278.723 12.1653 278.585 12.464C278.457 12.7627 278.371 13.104 278.329 13.488H282.489ZM287.594 18.192C287.039 18.192 286.511 18.0907 286.01 17.888C285.509 17.6853 285.071 17.4293 284.698 17.12L285.354 16.24C285.695 16.5173 286.042 16.7413 286.394 16.912C286.757 17.0827 287.173 17.168 287.642 17.168C288.154 17.168 288.538 17.0507 288.794 16.816C289.05 16.5813 289.178 16.2933 289.178 15.952C289.178 15.7493 289.125 15.5733 289.018 15.424C288.911 15.2747 288.773 15.1467 288.602 15.04C288.442 14.9227 288.255 14.8213 288.042 14.736C287.829 14.6507 287.615 14.5653 287.402 14.48C287.125 14.384 286.847 14.2773 286.57 14.16C286.293 14.032 286.042 13.8827 285.818 13.712C285.605 13.5307 285.429 13.3227 285.29 13.088C285.151 12.8533 285.082 12.5707 285.082 12.24C285.082 11.9307 285.141 11.6427 285.258 11.376C285.386 11.0987 285.562 10.864 285.786 10.672C286.021 10.4693 286.303 10.3147 286.634 10.208C286.965 10.0907 287.338 10.032 287.754 10.032C288.245 10.032 288.693 10.1173 289.098 10.288C289.514 10.4587 289.871 10.6667 290.17 10.912L289.546 11.744C289.279 11.5413 289.002 11.376 288.714 11.248C288.426 11.12 288.111 11.056 287.77 11.056C287.279 11.056 286.917 11.168 286.682 11.392C286.458 11.616 286.346 11.8773 286.346 12.176C286.346 12.3573 286.394 12.5173 286.49 12.656C286.586 12.784 286.714 12.9013 286.874 13.008C287.034 13.104 287.215 13.1947 287.418 13.28C287.631 13.3547 287.85 13.4347 288.074 13.52C288.351 13.6267 288.629 13.7387 288.906 13.856C289.194 13.9733 289.45 14.1227 289.674 14.304C289.898 14.4747 290.079 14.688 290.218 14.944C290.367 15.2 290.442 15.5093 290.442 15.872C290.442 16.192 290.378 16.4907 290.25 16.768C290.133 17.0453 289.951 17.2907 289.706 17.504C289.471 17.7173 289.173 17.8827 288.81 18C288.458 18.128 288.053 18.192 287.594 18.192ZM294.297 18.192C293.742 18.192 293.214 18.0907 292.713 17.888C292.212 17.6853 291.774 17.4293 291.401 17.12L292.057 16.24C292.398 16.5173 292.745 16.7413 293.097 16.912C293.46 17.0827 293.876 17.168 294.345 17.168C294.857 17.168 295.241 17.0507 295.497 16.816C295.753 16.5813 295.881 16.2933 295.881 15.952C295.881 15.7493 295.828 15.5733 295.721 15.424C295.614 15.2747 295.476 15.1467 295.305 15.04C295.145 14.9227 294.958 14.8213 294.745 14.736C294.532 14.6507 294.318 14.5653 294.105 14.48C293.828 14.384 293.55 14.2773 293.273 14.16C292.996 14.032 292.745 13.8827 292.521 13.712C292.308 13.5307 292.132 13.3227 291.993 13.088C291.854 12.8533 291.785 12.5707 291.785 12.24C291.785 11.9307 291.844 11.6427 291.961 11.376C292.089 11.0987 292.265 10.864 292.489 10.672C292.724 10.4693 293.006 10.3147 293.337 10.208C293.668 10.0907 294.041 10.032 294.457 10.032C294.948 10.032 295.396 10.1173 295.801 10.288C296.217 10.4587 296.574 10.6667 296.873 10.912L296.249 11.744C295.982 11.5413 295.705 11.376 295.417 11.248C295.129 11.12 294.814 11.056 294.473 11.056C293.982 11.056 293.62 11.168 293.385 11.392C293.161 11.616 293.049 11.8773 293.049 12.176C293.049 12.3573 293.097 12.5173 293.193 12.656C293.289 12.784 293.417 12.9013 293.577 13.008C293.737 13.104 293.918 13.1947 294.121 13.28C294.334 13.3547 294.553 13.4347 294.777 13.52C295.054 13.6267 295.332 13.7387 295.609 13.856C295.897 13.9733 296.153 14.1227 296.377 14.304C296.601 14.4747 296.782 14.688 296.921 14.944C297.07 15.2 297.145 15.5093 297.145 15.872C297.145 16.192 297.081 16.4907 296.953 16.768C296.836 17.0453 296.654 17.2907 296.409 17.504C296.174 17.7173 295.876 17.8827 295.513 18C295.161 18.128 294.756 18.192 294.297 18.192ZM302.12 18.192C301.598 18.192 301.107 18.1013 300.648 17.92C300.2 17.728 299.806 17.4613 299.464 17.12C299.134 16.768 298.872 16.3413 298.68 15.84C298.488 15.3387 298.392 14.768 298.392 14.128C298.392 13.488 298.488 12.9173 298.68 12.416C298.883 11.904 299.144 11.472 299.464 11.12C299.795 10.768 300.168 10.5013 300.584 10.32C301 10.128 301.432 10.032 301.88 10.032C302.371 10.032 302.808 10.1173 303.192 10.288C303.587 10.4587 303.912 10.704 304.168 11.024C304.435 11.344 304.638 11.728 304.776 12.176C304.915 12.624 304.984 13.1253 304.984 13.68C304.984 13.8187 304.979 13.9573 304.968 14.096C304.968 14.224 304.958 14.336 304.936 14.432H299.688C299.742 15.264 299.998 15.9253 300.456 16.416C300.926 16.896 301.534 17.136 302.28 17.136C302.654 17.136 302.995 17.0827 303.304 16.976C303.624 16.8587 303.928 16.7093 304.216 16.528L304.68 17.392C304.339 17.6053 303.96 17.792 303.544 17.952C303.128 18.112 302.654 18.192 302.12 18.192ZM303.832 13.488C303.832 12.6987 303.662 12.1013 303.32 11.696C302.99 11.28 302.52 11.072 301.912 11.072C301.635 11.072 301.368 11.1253 301.112 11.232C300.867 11.3387 300.643 11.4987 300.44 11.712C300.238 11.9147 300.067 12.1653 299.928 12.464C299.8 12.7627 299.715 13.104 299.672 13.488H303.832ZM306.906 10.224H307.994L308.106 11.344H308.154C308.527 10.9707 308.916 10.6613 309.322 10.416C309.738 10.16 310.218 10.032 310.762 10.032C311.583 10.032 312.18 10.288 312.554 10.8C312.938 11.312 313.13 12.0693 313.13 13.072V18H311.818V13.248C311.818 12.512 311.7 11.984 311.466 11.664C311.231 11.3333 310.858 11.168 310.346 11.168C309.94 11.168 309.583 11.2693 309.274 11.472C308.964 11.6747 308.612 11.9733 308.218 12.368V18H306.906V10.224ZM318.104 18.192C317.688 18.192 317.336 18.128 317.048 18C316.77 17.872 316.541 17.696 316.36 17.472C316.189 17.248 316.066 16.976 315.992 16.656C315.917 16.336 315.88 15.984 315.88 15.6V11.296H314.728V10.304L315.944 10.224L316.104 8.048H317.208V10.224H319.304V11.296H317.208V15.616C317.208 16.096 317.293 16.4693 317.464 16.736C317.645 16.992 317.96 17.12 318.408 17.12C318.546 17.12 318.696 17.0987 318.856 17.056C319.016 17.0133 319.16 16.9653 319.288 16.912L319.544 17.904C319.33 17.9787 319.096 18.0427 318.84 18.096C318.594 18.16 318.349 18.192 318.104 18.192ZM321.062 10.224H322.374V18H321.062V10.224ZM321.734 8.624C321.478 8.624 321.259 8.544 321.078 8.384C320.907 8.224 320.822 8.02133 320.822 7.776C320.822 7.52 320.907 7.31733 321.078 7.168C321.259 7.008 321.478 6.928 321.734 6.928C321.99 6.928 322.203 7.008 322.374 7.168C322.555 7.31733 322.646 7.52 322.646 7.776C322.646 8.02133 322.555 8.224 322.374 8.384C322.203 8.544 321.99 8.624 321.734 8.624ZM326.792 18.192C326.141 18.192 325.597 18 325.16 17.616C324.733 17.232 324.52 16.688 324.52 15.984C324.52 15.1307 324.898 14.48 325.656 14.032C326.413 13.5733 327.624 13.2533 329.288 13.072C329.288 12.8267 329.261 12.5867 329.208 12.352C329.165 12.1173 329.085 11.9093 328.968 11.728C328.85 11.5467 328.685 11.4027 328.472 11.296C328.269 11.1787 328.008 11.12 327.688 11.12C327.24 11.12 326.818 11.2053 326.424 11.376C326.029 11.5467 325.677 11.7387 325.368 11.952L324.856 11.04C325.218 10.8053 325.661 10.5813 326.184 10.368C326.706 10.144 327.282 10.032 327.911 10.032C328.861 10.032 329.549 10.3253 329.976 10.912C330.402 11.488 330.616 12.2613 330.616 13.232V18H329.528L329.416 17.072H329.368C328.994 17.3813 328.594 17.648 328.168 17.872C327.741 18.0853 327.282 18.192 326.792 18.192ZM327.176 17.136C327.549 17.136 327.901 17.0507 328.232 16.88C328.562 16.6987 328.914 16.4373 329.288 16.096V13.936C328.637 14.0213 328.088 14.1227 327.64 14.24C327.202 14.3573 326.845 14.496 326.568 14.656C326.301 14.816 326.104 15.0027 325.976 15.216C325.858 15.4187 325.799 15.6427 325.799 15.888C325.799 16.336 325.933 16.656 326.2 16.848C326.466 17.04 326.792 17.136 327.176 17.136ZM334.454 18.192C333.953 18.192 333.595 18.0427 333.382 17.744C333.169 17.4453 333.062 17.008 333.062 16.432V6.608H334.374V16.528C334.374 16.7413 334.411 16.8907 334.486 16.976C334.561 17.0613 334.646 17.104 334.742 17.104C334.785 17.104 334.822 17.104 334.854 17.104C334.897 17.104 334.955 17.0933 335.03 17.072L335.206 18.064C335.121 18.1067 335.019 18.1387 334.902 18.16C334.785 18.1813 334.635 18.192 334.454 18.192ZM340.343 10.224H341.431L341.543 11.12H341.591C341.943 10.8213 342.327 10.5653 342.743 10.352C343.17 10.1387 343.613 10.032 344.071 10.032C344.573 10.032 345.015 10.128 345.399 10.32C345.783 10.5013 346.103 10.768 346.359 11.12C346.615 11.4613 346.807 11.8773 346.935 12.368C347.074 12.848 347.143 13.392 347.143 14C347.143 14.6613 347.053 15.2533 346.871 15.776C346.69 16.288 346.445 16.7253 346.135 17.088C345.826 17.4507 345.469 17.728 345.063 17.92C344.658 18.1013 344.231 18.192 343.783 18.192C343.421 18.192 343.058 18.112 342.695 17.952C342.343 17.792 341.986 17.5733 341.623 17.296L341.655 18.656V21.28H340.343V10.224ZM343.559 17.088C343.879 17.088 344.173 17.0187 344.439 16.88C344.717 16.7307 344.951 16.528 345.143 16.272C345.346 16.0053 345.501 15.68 345.607 15.296C345.725 14.912 345.783 14.48 345.783 14C345.783 13.5733 345.746 13.184 345.671 12.832C345.597 12.48 345.474 12.1813 345.303 11.936C345.143 11.68 344.93 11.4827 344.663 11.344C344.407 11.2053 344.098 11.136 343.735 11.136C343.405 11.136 343.069 11.2267 342.727 11.408C342.397 11.5893 342.039 11.8507 341.655 12.192V16.272C342.007 16.5707 342.349 16.784 342.679 16.912C343.01 17.0293 343.303 17.088 343.559 17.088ZM349.218 10.224H350.306L350.418 11.632H350.466C350.733 11.1413 351.053 10.752 351.426 10.464C351.81 10.176 352.226 10.032 352.674 10.032C352.984 10.032 353.261 10.0853 353.506 10.192L353.25 11.344C353.122 11.3013 353.005 11.2693 352.898 11.248C352.792 11.2267 352.658 11.216 352.498 11.216C352.168 11.216 351.821 11.3493 351.458 11.616C351.106 11.8827 350.797 12.3467 350.53 13.008V18H349.218V10.224ZM356.167 18.192C355.516 18.192 354.972 18 354.535 17.616C354.108 17.232 353.895 16.688 353.895 15.984C353.895 15.1307 354.273 14.48 355.031 14.032C355.788 13.5733 356.999 13.2533 358.663 13.072C358.663 12.8267 358.636 12.5867 358.583 12.352C358.54 12.1173 358.46 11.9093 358.343 11.728C358.225 11.5467 358.06 11.4027 357.847 11.296C357.644 11.1787 357.383 11.12 357.062 11.12C356.615 11.12 356.193 11.2053 355.799 11.376C355.404 11.5467 355.052 11.7387 354.743 11.952L354.231 11.04C354.593 10.8053 355.036 10.5813 355.559 10.368C356.081 10.144 356.657 10.032 357.286 10.032C358.236 10.032 358.924 10.3253 359.351 10.912C359.777 11.488 359.991 12.2613 359.991 13.232V18H358.903L358.791 17.072H358.743C358.369 17.3813 357.969 17.648 357.543 17.872C357.116 18.0853 356.657 18.192 356.167 18.192ZM356.551 17.136C356.924 17.136 357.276 17.0507 357.607 16.88C357.937 16.6987 358.289 16.4373 358.663 16.096V13.936C358.012 14.0213 357.463 14.1227 357.015 14.24C356.577 14.3573 356.22 14.496 355.943 14.656C355.676 14.816 355.479 15.0027 355.351 15.216C355.233 15.4187 355.174 15.6427 355.174 15.888C355.174 16.336 355.308 16.656 355.575 16.848C355.841 17.04 356.167 17.136 356.551 17.136ZM365.509 18.192C364.997 18.192 364.517 18.1013 364.069 17.92C363.621 17.7387 363.232 17.4773 362.901 17.136C362.581 16.784 362.325 16.3573 362.133 15.856C361.952 15.344 361.861 14.768 361.861 14.128C361.861 13.4773 361.962 12.9013 362.165 12.4C362.368 11.888 362.64 11.456 362.981 11.104C363.322 10.752 363.717 10.4853 364.165 10.304C364.624 10.1227 365.104 10.032 365.605 10.032C366.117 10.032 366.554 10.1227 366.917 10.304C367.28 10.4853 367.6 10.6987 367.877 10.944L367.205 11.808C366.981 11.6053 366.741 11.44 366.485 11.312C366.24 11.184 365.962 11.12 365.653 11.12C365.301 11.12 364.976 11.1947 364.677 11.344C364.378 11.4827 364.122 11.6853 363.909 11.952C363.696 12.2187 363.525 12.5387 363.397 12.912C363.28 13.2747 363.221 13.68 363.221 14.128C363.221 14.576 363.28 14.9813 363.397 15.344C363.514 15.7067 363.674 16.0213 363.877 16.288C364.09 16.544 364.346 16.7467 364.645 16.896C364.944 17.0347 365.269 17.104 365.621 17.104C365.984 17.104 366.314 17.0293 366.613 16.88C366.922 16.72 367.2 16.5333 367.445 16.32L368.021 17.2C367.669 17.5093 367.28 17.7547 366.853 17.936C366.426 18.1067 365.978 18.192 365.509 18.192ZM372.026 18.192C371.61 18.192 371.258 18.128 370.97 18C370.692 17.872 370.463 17.696 370.282 17.472C370.111 17.248 369.988 16.976 369.914 16.656C369.839 16.336 369.802 15.984 369.802 15.6V11.296H368.65V10.304L369.866 10.224L370.026 8.048H371.13V10.224H373.226V11.296H371.13V15.616C371.13 16.096 371.215 16.4693 371.386 16.736C371.567 16.992 371.882 17.12 372.33 17.12C372.468 17.12 372.618 17.0987 372.778 17.056C372.938 17.0133 373.082 16.9653 373.21 16.912L373.466 17.904C373.252 17.9787 373.018 18.0427 372.762 18.096C372.516 18.16 372.271 18.192 372.026 18.192ZM374.984 10.224H376.296V18H374.984V10.224ZM375.656 8.624C375.4 8.624 375.181 8.544 375 8.384C374.829 8.224 374.744 8.02133 374.744 7.776C374.744 7.52 374.829 7.31733 375 7.168C375.181 7.008 375.4 6.928 375.656 6.928C375.912 6.928 376.125 7.008 376.296 7.168C376.477 7.31733 376.568 7.52 376.568 7.776C376.568 8.02133 376.477 8.224 376.296 8.384C376.125 8.544 375.912 8.624 375.656 8.624ZM381.993 18.192C381.481 18.192 381.001 18.1013 380.553 17.92C380.105 17.7387 379.716 17.4773 379.385 17.136C379.065 16.784 378.809 16.3573 378.617 15.856C378.436 15.344 378.345 14.768 378.345 14.128C378.345 13.4773 378.447 12.9013 378.649 12.4C378.852 11.888 379.124 11.456 379.465 11.104C379.807 10.752 380.201 10.4853 380.649 10.304C381.108 10.1227 381.588 10.032 382.089 10.032C382.601 10.032 383.039 10.1227 383.401 10.304C383.764 10.4853 384.084 10.6987 384.361 10.944L383.689 11.808C383.465 11.6053 383.225 11.44 382.969 11.312C382.724 11.184 382.447 11.12 382.137 11.12C381.785 11.12 381.46 11.1947 381.161 11.344C380.863 11.4827 380.607 11.6853 380.393 11.952C380.18 12.2187 380.009 12.5387 379.881 12.912C379.764 13.2747 379.705 13.68 379.705 14.128C379.705 14.576 379.764 14.9813 379.881 15.344C379.999 15.7067 380.159 16.0213 380.361 16.288C380.575 16.544 380.831 16.7467 381.129 16.896C381.428 17.0347 381.753 17.104 382.105 17.104C382.468 17.104 382.799 17.0293 383.097 16.88C383.407 16.72 383.684 16.5333 383.929 16.32L384.505 17.2C384.153 17.5093 383.764 17.7547 383.337 17.936C382.911 18.1067 382.463 18.192 381.993 18.192ZM389.027 18.192C388.504 18.192 388.013 18.1013 387.555 17.92C387.107 17.728 386.712 17.4613 386.371 17.12C386.04 16.768 385.779 16.3413 385.587 15.84C385.395 15.3387 385.299 14.768 385.299 14.128C385.299 13.488 385.395 12.9173 385.587 12.416C385.789 11.904 386.051 11.472 386.371 11.12C386.701 10.768 387.075 10.5013 387.491 10.32C387.907 10.128 388.339 10.032 388.786 10.032C389.277 10.032 389.715 10.1173 390.099 10.288C390.493 10.4587 390.819 10.704 391.075 11.024C391.341 11.344 391.544 11.728 391.683 12.176C391.821 12.624 391.891 13.1253 391.891 13.68C391.891 13.8187 391.885 13.9573 391.875 14.096C391.875 14.224 391.864 14.336 391.843 14.432H386.595C386.648 15.264 386.904 15.9253 387.363 16.416C387.832 16.896 388.44 17.136 389.187 17.136C389.56 17.136 389.901 17.0827 390.211 16.976C390.531 16.8587 390.835 16.7093 391.123 16.528L391.587 17.392C391.245 17.6053 390.867 17.792 390.451 17.952C390.035 18.112 389.56 18.192 389.027 18.192ZM390.739 13.488C390.739 12.6987 390.568 12.1013 390.227 11.696C389.896 11.28 389.427 11.072 388.819 11.072C388.541 11.072 388.275 11.1253 388.019 11.232C387.773 11.3387 387.549 11.4987 387.347 11.712C387.144 11.9147 386.973 12.1653 386.835 12.464C386.707 12.7627 386.621 13.104 386.579 13.488H390.739ZM395.844 18.192C395.289 18.192 394.761 18.0907 394.26 17.888C393.759 17.6853 393.321 17.4293 392.948 17.12L393.604 16.24C393.945 16.5173 394.292 16.7413 394.644 16.912C395.007 17.0827 395.423 17.168 395.892 17.168C396.404 17.168 396.788 17.0507 397.044 16.816C397.3 16.5813 397.428 16.2933 397.428 15.952C397.428 15.7493 397.375 15.5733 397.268 15.424C397.161 15.2747 397.023 15.1467 396.852 15.04C396.692 14.9227 396.505 14.8213 396.292 14.736C396.079 14.6507 395.865 14.5653 395.652 14.48C395.375 14.384 395.097 14.2773 394.82 14.16C394.543 14.032 394.292 13.8827 394.068 13.712C393.855 13.5307 393.679 13.3227 393.54 13.088C393.401 12.8533 393.332 12.5707 393.332 12.24C393.332 11.9307 393.391 11.6427 393.508 11.376C393.636 11.0987 393.812 10.864 394.036 10.672C394.271 10.4693 394.553 10.3147 394.884 10.208C395.215 10.0907 395.588 10.032 396.004 10.032C396.495 10.032 396.943 10.1173 397.348 10.288C397.764 10.4587 398.121 10.6667 398.42 10.912L397.796 11.744C397.529 11.5413 397.252 11.376 396.964 11.248C396.676 11.12 396.361 11.056 396.02 11.056C395.529 11.056 395.167 11.168 394.932 11.392C394.708 11.616 394.596 11.8773 394.596 12.176C394.596 12.3573 394.644 12.5173 394.74 12.656C394.836 12.784 394.964 12.9013 395.124 13.008C395.284 13.104 395.465 13.1947 395.668 13.28C395.881 13.3547 396.1 13.4347 396.324 13.52C396.601 13.6267 396.879 13.7387 397.156 13.856C397.444 13.9733 397.7 14.1227 397.924 14.304C398.148 14.4747 398.329 14.688 398.468 14.944C398.617 15.2 398.692 15.5093 398.692 15.872C398.692 16.192 398.628 16.4907 398.5 16.768C398.383 17.0453 398.201 17.2907 397.956 17.504C397.721 17.7173 397.423 17.8827 397.06 18C396.708 18.128 396.303 18.192 395.844 18.192ZM405.51 18.192C404.86 18.192 404.316 18 403.878 17.616C403.452 17.232 403.238 16.688 403.238 15.984C403.238 15.1307 403.617 14.48 404.374 14.032C405.132 13.5733 406.342 13.2533 408.006 13.072C408.006 12.8267 407.98 12.5867 407.926 12.352C407.884 12.1173 407.804 11.9093 407.686 11.728C407.569 11.5467 407.404 11.4027 407.19 11.296C406.988 11.1787 406.726 11.12 406.406 11.12C405.958 11.12 405.537 11.2053 405.142 11.376C404.748 11.5467 404.396 11.7387 404.086 11.952L403.574 11.04C403.937 10.8053 404.38 10.5813 404.902 10.368C405.425 10.144 406.001 10.032 406.63 10.032C407.58 10.032 408.268 10.3253 408.694 10.912C409.121 11.488 409.334 12.2613 409.334 13.232V18H408.246L408.134 17.072H408.086C407.713 17.3813 407.313 17.648 406.886 17.872C406.46 18.0853 406.001 18.192 405.51 18.192ZM405.894 17.136C406.268 17.136 406.62 17.0507 406.95 16.88C407.281 16.6987 407.633 16.4373 408.006 16.096V13.936C407.356 14.0213 406.806 14.1227 406.358 14.24C405.921 14.3573 405.564 14.496 405.286 14.656C405.02 14.816 404.822 15.0027 404.694 15.216C404.577 15.4187 404.518 15.6427 404.518 15.888C404.518 16.336 404.652 16.656 404.918 16.848C405.185 17.04 405.51 17.136 405.894 17.136ZM411.781 10.224H412.869L412.981 11.344H413.029C413.402 10.9707 413.791 10.6613 414.197 10.416C414.613 10.16 415.093 10.032 415.637 10.032C416.458 10.032 417.055 10.288 417.429 10.8C417.813 11.312 418.005 12.0693 418.005 13.072V18H416.693V13.248C416.693 12.512 416.575 11.984 416.341 11.664C416.106 11.3333 415.733 11.168 415.221 11.168C414.815 11.168 414.458 11.2693 414.149 11.472C413.839 11.6747 413.487 11.9733 413.093 12.368V18H411.781V10.224ZM423.187 18.192C422.205 18.192 421.421 17.84 420.835 17.136C420.259 16.432 419.971 15.4293 419.971 14.128C419.971 13.4987 420.061 12.9333 420.243 12.432C420.435 11.92 420.685 11.488 420.995 11.136C421.304 10.784 421.661 10.512 422.067 10.32C422.472 10.128 422.899 10.032 423.347 10.032C423.795 10.032 424.184 10.112 424.515 10.272C424.845 10.432 425.181 10.6507 425.523 10.928L425.459 9.6V6.608H426.787V18H425.699L425.587 17.088H425.539C425.229 17.3867 424.872 17.648 424.467 17.872C424.072 18.0853 423.645 18.192 423.187 18.192ZM423.475 17.088C423.837 17.088 424.179 17.0027 424.499 16.832C424.819 16.6507 425.139 16.3787 425.459 16.016V11.952C425.128 11.6533 424.808 11.4453 424.499 11.328C424.2 11.2 423.891 11.136 423.571 11.136C423.261 11.136 422.968 11.2107 422.691 11.36C422.424 11.4987 422.189 11.7013 421.987 11.968C421.784 12.224 421.624 12.5333 421.507 12.896C421.389 13.2587 421.331 13.664 421.331 14.112C421.331 15.0507 421.517 15.7813 421.891 16.304C422.264 16.8267 422.792 17.088 423.475 17.088ZM35.76 42.192C35.344 42.192 34.992 42.128 34.704 42C34.4267 41.872 34.1973 41.696 34.016 41.472C33.8453 41.248 33.7227 40.976 33.648 40.656C33.5733 40.336 33.536 39.984 33.536 39.6V35.296H32.384V34.304L33.6 34.224L33.76 32.048H34.864V34.224H36.96V35.296H34.864V39.616C34.864 40.096 34.9493 40.4693 35.12 40.736C35.3013 40.992 35.616 41.12 36.064 41.12C36.2027 41.12 36.352 41.0987 36.512 41.056C36.672 41.0133 36.816 40.9653 36.944 40.912L37.2 41.904C36.9867 41.9787 36.752 42.0427 36.496 42.096C36.2507 42.16 36.0053 42.192 35.76 42.192ZM41.6515 42.192C41.1288 42.192 40.6382 42.1013 40.1795 41.92C39.7315 41.728 39.3368 41.4613 38.9955 41.12C38.6648 40.768 38.4035 40.3413 38.2115 39.84C38.0195 39.3387 37.9235 38.768 37.9235 38.128C37.9235 37.488 38.0195 36.9173 38.2115 36.416C38.4142 35.904 38.6755 35.472 38.9955 35.12C39.3262 34.768 39.6995 34.5013 40.1155 34.32C40.5315 34.128 40.9635 34.032 41.4115 34.032C41.9022 34.032 42.3395 34.1173 42.7235 34.288C43.1182 34.4587 43.4435 34.704 43.6995 35.024C43.9662 35.344 44.1688 35.728 44.3075 36.176C44.4462 36.624 44.5155 37.1253 44.5155 37.68C44.5155 37.8187 44.5102 37.9573 44.4995 38.096C44.4995 38.224 44.4888 38.336 44.4675 38.432H39.2195C39.2728 39.264 39.5288 39.9253 39.9875 40.416C40.4568 40.896 41.0648 41.136 41.8115 41.136C42.1848 41.136 42.5262 41.0827 42.8355 40.976C43.1555 40.8587 43.4595 40.7093 43.7475 40.528L44.2115 41.392C43.8702 41.6053 43.4915 41.792 43.0755 41.952C42.6595 42.112 42.1848 42.192 41.6515 42.192ZM43.3635 37.488C43.3635 36.6987 43.1928 36.1013 42.8515 35.696C42.5208 35.28 42.0515 35.072 41.4435 35.072C41.1662 35.072 40.8995 35.1253 40.6435 35.232C40.3982 35.3387 40.1742 35.4987 39.9715 35.712C39.7688 35.9147 39.5982 36.1653 39.4595 36.464C39.3315 36.7627 39.2462 37.104 39.2035 37.488H43.3635ZM49.509 42.192C48.997 42.192 48.517 42.1013 48.069 41.92C47.621 41.7387 47.2317 41.4773 46.901 41.136C46.581 40.784 46.325 40.3573 46.133 39.856C45.9517 39.344 45.861 38.768 45.861 38.128C45.861 37.4773 45.9623 36.9013 46.165 36.4C46.3677 35.888 46.6397 35.456 46.981 35.104C47.3223 34.752 47.717 34.4853 48.165 34.304C48.6237 34.1227 49.1037 34.032 49.605 34.032C50.117 34.032 50.5543 34.1227 50.917 34.304C51.2797 34.4853 51.5997 34.6987 51.877 34.944L51.205 35.808C50.981 35.6053 50.741 35.44 50.485 35.312C50.2397 35.184 49.9623 35.12 49.653 35.12C49.301 35.12 48.9757 35.1947 48.677 35.344C48.3783 35.4827 48.1223 35.6853 47.909 35.952C47.6957 36.2187 47.525 36.5387 47.397 36.912C47.2797 37.2747 47.221 37.68 47.221 38.128C47.221 38.576 47.2797 38.9813 47.397 39.344C47.5143 39.7067 47.6743 40.0213 47.877 40.288C48.0903 40.544 48.3463 40.7467 48.645 40.896C48.9437 41.0347 49.269 41.104 49.621 41.104C49.9837 41.104 50.3143 41.0293 50.613 40.88C50.9223 40.72 51.1997 40.5333 51.445 40.32L52.021 41.2C51.669 41.5093 51.2797 41.7547 50.853 41.936C50.4263 42.1067 49.9783 42.192 49.509 42.192ZM53.7339 30.608H55.0459V33.712L54.9979 35.312C55.3712 34.96 55.7605 34.6613 56.1659 34.416C56.5712 34.16 57.0459 34.032 57.5899 34.032C58.4112 34.032 59.0085 34.288 59.3819 34.8C59.7659 35.312 59.9579 36.0693 59.9579 37.072V42H58.6459V37.248C58.6459 36.512 58.5285 35.984 58.2939 35.664C58.0592 35.3333 57.6859 35.168 57.1739 35.168C56.7685 35.168 56.4112 35.2693 56.1019 35.472C55.7925 35.6747 55.4405 35.9733 55.0459 36.368V42H53.7339V30.608ZM62.437 34.224H63.525L63.637 35.344H63.685C64.0583 34.9707 64.4477 34.6613 64.853 34.416C65.269 34.16 65.749 34.032 66.293 34.032C67.1143 34.032 67.7117 34.288 68.085 34.8C68.469 35.312 68.661 36.0693 68.661 37.072V42H67.349V37.248C67.349 36.512 67.2317 35.984 66.997 35.664C66.7623 35.3333 66.389 35.168 65.877 35.168C65.4717 35.168 65.1143 35.2693 64.805 35.472C64.4957 35.6747 64.1437 35.9733 63.749 36.368V42H62.437V34.224ZM71.187 34.224H72.499V42H71.187V34.224ZM71.859 32.624C71.603 32.624 71.3843 32.544 71.203 32.384C71.0323 32.224 70.947 32.0213 70.947 31.776C70.947 31.52 71.0323 31.3173 71.203 31.168C71.3843 31.008 71.603 30.928 71.859 30.928C72.115 30.928 72.3283 31.008 72.499 31.168C72.6803 31.3173 72.771 31.52 72.771 31.776C72.771 32.0213 72.6803 32.224 72.499 32.384C72.3283 32.544 72.115 32.624 71.859 32.624ZM78.1965 42.192C77.6845 42.192 77.2045 42.1013 76.7565 41.92C76.3085 41.7387 75.9192 41.4773 75.5885 41.136C75.2685 40.784 75.0125 40.3573 74.8205 39.856C74.6392 39.344 74.5485 38.768 74.5485 38.128C74.5485 37.4773 74.6498 36.9013 74.8525 36.4C75.0552 35.888 75.3272 35.456 75.6685 35.104C76.0098 34.752 76.4045 34.4853 76.8525 34.304C77.3112 34.1227 77.7912 34.032 78.2925 34.032C78.8045 34.032 79.2418 34.1227 79.6045 34.304C79.9672 34.4853 80.2872 34.6987 80.5645 34.944L79.8925 35.808C79.6685 35.6053 79.4285 35.44 79.1725 35.312C78.9272 35.184 78.6498 35.12 78.3405 35.12C77.9885 35.12 77.6632 35.1947 77.3645 35.344C77.0658 35.4827 76.8098 35.6853 76.5965 35.952C76.3832 36.2187 76.2125 36.5387 76.0845 36.912C75.9672 37.2747 75.9085 37.68 75.9085 38.128C75.9085 38.576 75.9672 38.9813 76.0845 39.344C76.2018 39.7067 76.3618 40.0213 76.5645 40.288C76.7778 40.544 77.0338 40.7467 77.3325 40.896C77.6312 41.0347 77.9565 41.104 78.3085 41.104C78.6712 41.104 79.0018 41.0293 79.3005 40.88C79.6098 40.72 79.8872 40.5333 80.1325 40.32L80.7085 41.2C80.3565 41.5093 79.9672 41.7547 79.5405 41.936C79.1138 42.1067 78.6658 42.192 78.1965 42.192ZM84.0571 42.192C83.4065 42.192 82.8625 42 82.4251 41.616C81.9985 41.232 81.7851 40.688 81.7851 39.984C81.7851 39.1307 82.1638 38.48 82.9211 38.032C83.6785 37.5733 84.8891 37.2533 86.5531 37.072C86.5531 36.8267 86.5265 36.5867 86.4731 36.352C86.4305 36.1173 86.3505 35.9093 86.2331 35.728C86.1158 35.5467 85.9505 35.4027 85.7371 35.296C85.5345 35.1787 85.2731 35.12 84.9531 35.12C84.5051 35.12 84.0838 35.2053 83.6891 35.376C83.2945 35.5467 82.9425 35.7387 82.6331 35.952L82.1211 35.04C82.4838 34.8053 82.9265 34.5813 83.4491 34.368C83.9718 34.144 84.5478 34.032 85.1771 34.032C86.1265 34.032 86.8145 34.3253 87.2411 34.912C87.6678 35.488 87.8811 36.2613 87.8811 37.232V42H86.7931L86.6811 41.072H86.6331C86.2598 41.3813 85.8598 41.648 85.4331 41.872C85.0065 42.0853 84.5478 42.192 84.0571 42.192ZM84.4411 41.136C84.8145 41.136 85.1665 41.0507 85.4971 40.88C85.8278 40.6987 86.1798 40.4373 86.5531 40.096V37.936C85.9025 38.0213 85.3531 38.1227 84.9051 38.24C84.4678 38.3573 84.1105 38.496 83.8331 38.656C83.5665 38.816 83.3691 39.0027 83.2411 39.216C83.1238 39.4187 83.0651 39.6427 83.0651 39.888C83.0651 40.336 83.1985 40.656 83.4651 40.848C83.7318 41.04 84.0571 41.136 84.4411 41.136ZM91.7196 42.192C91.2183 42.192 90.861 42.0427 90.6476 41.744C90.4343 41.4453 90.3276 41.008 90.3276 40.432V30.608H91.6396V40.528C91.6396 40.7413 91.677 40.8907 91.7516 40.976C91.8263 41.0613 91.9116 41.104 92.0076 41.104C92.0503 41.104 92.0876 41.104 92.1196 41.104C92.1623 41.104 92.221 41.0933 92.2956 41.072L92.4716 42.064C92.3863 42.1067 92.285 42.1387 92.1676 42.16C92.0503 42.1813 91.901 42.192 91.7196 42.192ZM99.6409 42.192C99.0862 42.192 98.5582 42.0907 98.0569 41.888C97.5555 41.6853 97.1182 41.4293 96.7449 41.12L97.4009 40.24C97.7422 40.5173 98.0889 40.7413 98.4409 40.912C98.8035 41.0827 99.2195 41.168 99.6889 41.168C100.201 41.168 100.585 41.0507 100.841 40.816C101.097 40.5813 101.225 40.2933 101.225 39.952C101.225 39.7493 101.172 39.5733 101.065 39.424C100.958 39.2747 100.82 39.1467 100.649 39.04C100.489 38.9227 100.302 38.8213 100.089 38.736C99.8755 38.6507 99.6622 38.5653 99.4489 38.48C99.1715 38.384 98.8942 38.2773 98.6169 38.16C98.3395 38.032 98.0889 37.8827 97.8649 37.712C97.6515 37.5307 97.4755 37.3227 97.3369 37.088C97.1982 36.8533 97.1289 36.5707 97.1289 36.24C97.1289 35.9307 97.1875 35.6427 97.3049 35.376C97.4329 35.0987 97.6089 34.864 97.8329 34.672C98.0675 34.4693 98.3502 34.3147 98.6809 34.208C99.0115 34.0907 99.3849 34.032 99.8009 34.032C100.292 34.032 100.74 34.1173 101.145 34.288C101.561 34.4587 101.918 34.6667 102.217 34.912L101.593 35.744C101.326 35.5413 101.049 35.376 100.761 35.248C100.473 35.12 100.158 35.056 99.8169 35.056C99.3262 35.056 98.9635 35.168 98.7289 35.392C98.5049 35.616 98.3929 35.8773 98.3929 36.176C98.3929 36.3573 98.4409 36.5173 98.5369 36.656C98.6329 36.784 98.7609 36.9013 98.9209 37.008C99.0809 37.104 99.2622 37.1947 99.4649 37.28C99.6782 37.3547 99.8969 37.4347 100.121 37.52C100.398 37.6267 100.676 37.7387 100.953 37.856C101.241 37.9733 101.497 38.1227 101.721 38.304C101.945 38.4747 102.126 38.688 102.265 38.944C102.414 39.2 102.489 39.5093 102.489 39.872C102.489 40.192 102.425 40.4907 102.297 40.768C102.18 41.0453 101.998 41.2907 101.753 41.504C101.518 41.7173 101.22 41.8827 100.857 42C100.505 42.128 100.1 42.192 99.6409 42.192ZM104.312 30.608H105.608V38.32H105.656L108.968 34.224H110.424L107.816 37.344L110.776 42H109.336L107.064 38.256L105.608 39.952V42H104.312V30.608ZM112.234 34.224H113.546V42H112.234V34.224ZM112.906 32.624C112.65 32.624 112.431 32.544 112.25 32.384C112.079 32.224 111.994 32.0213 111.994 31.776C111.994 31.52 112.079 31.3173 112.25 31.168C112.431 31.008 112.65 30.928 112.906 30.928C113.162 30.928 113.375 31.008 113.546 31.168C113.727 31.3173 113.818 31.52 113.818 31.776C113.818 32.0213 113.727 32.224 113.546 32.384C113.375 32.544 113.162 32.624 112.906 32.624ZM117.563 42.192C117.062 42.192 116.705 42.0427 116.491 41.744C116.278 41.4453 116.171 41.008 116.171 40.432V30.608H117.483V40.528C117.483 40.7413 117.521 40.8907 117.595 40.976C117.67 41.0613 117.755 41.104 117.851 41.104C117.894 41.104 117.931 41.104 117.963 41.104C118.006 41.104 118.065 41.0933 118.139 41.072L118.315 42.064C118.23 42.1067 118.129 42.1387 118.011 42.16C117.894 42.1813 117.745 42.192 117.563 42.192ZM121.642 42.192C121.14 42.192 120.783 42.0427 120.57 41.744C120.356 41.4453 120.25 41.008 120.25 40.432V30.608H121.562V40.528C121.562 40.7413 121.599 40.8907 121.674 40.976C121.748 41.0613 121.834 41.104 121.93 41.104C121.972 41.104 122.01 41.104 122.042 41.104C122.084 41.104 122.143 41.0933 122.218 41.072L122.394 42.064C122.308 42.1067 122.207 42.1387 122.09 42.16C121.972 42.1813 121.823 42.192 121.642 42.192ZM126.36 42.192C125.805 42.192 125.277 42.0907 124.776 41.888C124.274 41.6853 123.837 41.4293 123.464 41.12L124.12 40.24C124.461 40.5173 124.808 40.7413 125.16 40.912C125.522 41.0827 125.938 41.168 126.408 41.168C126.92 41.168 127.304 41.0507 127.56 40.816C127.816 40.5813 127.944 40.2933 127.944 39.952C127.944 39.7493 127.89 39.5733 127.784 39.424C127.677 39.2747 127.538 39.1467 127.368 39.04C127.208 38.9227 127.021 38.8213 126.808 38.736C126.594 38.6507 126.381 38.5653 126.168 38.48C125.89 38.384 125.613 38.2773 125.336 38.16C125.058 38.032 124.808 37.8827 124.584 37.712C124.37 37.5307 124.194 37.3227 124.056 37.088C123.917 36.8533 123.848 36.5707 123.848 36.24C123.848 35.9307 123.906 35.6427 124.024 35.376C124.152 35.0987 124.328 34.864 124.552 34.672C124.786 34.4693 125.069 34.3147 125.4 34.208C125.73 34.0907 126.104 34.032 126.52 34.032C127.01 34.032 127.458 34.1173 127.864 34.288C128.28 34.4587 128.637 34.6667 128.936 34.912L128.312 35.744C128.045 35.5413 127.768 35.376 127.48 35.248C127.192 35.12 126.877 35.056 126.536 35.056C126.045 35.056 125.682 35.168 125.448 35.392C125.224 35.616 125.112 35.8773 125.112 36.176C125.112 36.3573 125.16 36.5173 125.256 36.656C125.352 36.784 125.48 36.9013 125.64 37.008C125.8 37.104 125.981 37.1947 126.184 37.28C126.397 37.3547 126.616 37.4347 126.84 37.52C127.117 37.6267 127.394 37.7387 127.672 37.856C127.96 37.9733 128.216 38.1227 128.44 38.304C128.664 38.4747 128.845 38.688 128.984 38.944C129.133 39.2 129.208 39.5093 129.208 39.872C129.208 40.192 129.144 40.4907 129.016 40.768C128.898 41.0453 128.717 41.2907 128.472 41.504C128.237 41.7173 127.938 41.8827 127.576 42C127.224 42.128 126.818 42.192 126.36 42.192ZM134.234 34.224H135.322L135.434 35.632H135.482C135.749 35.1413 136.069 34.752 136.442 34.464C136.826 34.176 137.242 34.032 137.69 34.032C137.999 34.032 138.277 34.0853 138.522 34.192L138.266 35.344C138.138 35.3013 138.021 35.2693 137.914 35.248C137.807 35.2267 137.674 35.216 137.514 35.216C137.183 35.216 136.837 35.3493 136.474 35.616C136.122 35.8827 135.813 36.3467 135.546 37.008V42H134.234V34.224ZM142.777 42.192C142.254 42.192 141.763 42.1013 141.305 41.92C140.857 41.728 140.462 41.4613 140.121 41.12C139.79 40.768 139.529 40.3413 139.337 39.84C139.145 39.3387 139.049 38.768 139.049 38.128C139.049 37.488 139.145 36.9173 139.337 36.416C139.539 35.904 139.801 35.472 140.121 35.12C140.451 34.768 140.825 34.5013 141.241 34.32C141.657 34.128 142.089 34.032 142.536 34.032C143.027 34.032 143.465 34.1173 143.849 34.288C144.243 34.4587 144.569 34.704 144.825 35.024C145.091 35.344 145.294 35.728 145.433 36.176C145.571 36.624 145.641 37.1253 145.641 37.68C145.641 37.8187 145.635 37.9573 145.625 38.096C145.625 38.224 145.614 38.336 145.593 38.432H140.345C140.398 39.264 140.654 39.9253 141.113 40.416C141.582 40.896 142.19 41.136 142.937 41.136C143.31 41.136 143.651 41.0827 143.961 40.976C144.281 40.8587 144.585 40.7093 144.873 40.528L145.337 41.392C144.995 41.6053 144.617 41.792 144.201 41.952C143.785 42.112 143.31 42.192 142.777 42.192ZM144.489 37.488C144.489 36.6987 144.318 36.1013 143.977 35.696C143.646 35.28 143.177 35.072 142.569 35.072C142.291 35.072 142.025 35.1253 141.769 35.232C141.523 35.3387 141.299 35.4987 141.097 35.712C140.894 35.9147 140.723 36.1653 140.585 36.464C140.457 36.7627 140.371 37.104 140.329 37.488H144.489ZM152.49 42.512L152.554 41.104C152.245 41.4133 151.887 41.6747 151.482 41.888C151.087 42.0907 150.666 42.192 150.218 42.192C149.237 42.192 148.453 41.84 147.866 41.136C147.29 40.432 147.002 39.4293 147.002 38.128C147.002 37.4987 147.093 36.9333 147.274 36.432C147.466 35.92 147.717 35.488 148.026 35.136C148.335 34.784 148.693 34.512 149.098 34.32C149.503 34.128 149.93 34.032 150.378 34.032C150.826 34.032 151.221 34.112 151.562 34.272C151.903 34.4213 152.25 34.6507 152.602 34.96H152.634L152.762 34.224H153.818V45.28H152.49V42.512ZM150.506 41.088C150.869 41.088 151.21 41.0027 151.53 40.832C151.85 40.6507 152.17 40.3787 152.49 40.016V35.952C152.159 35.6533 151.839 35.4453 151.53 35.328C151.231 35.2 150.922 35.136 150.602 35.136C150.293 35.136 149.999 35.2107 149.722 35.36C149.455 35.4987 149.221 35.7013 149.018 35.968C148.815 36.224 148.655 36.5333 148.538 36.896C148.421 37.2587 148.362 37.664 148.362 38.112C148.362 39.0507 148.549 39.7813 148.922 40.304C149.295 40.8267 149.823 41.088 150.506 41.088ZM158.709 42.192C157.877 42.192 157.269 41.936 156.885 41.424C156.512 40.912 156.325 40.1547 156.325 39.152V34.224H157.653V38.976C157.653 39.712 157.765 40.2453 157.989 40.576C158.224 40.896 158.597 41.056 159.109 41.056C159.514 41.056 159.872 40.9547 160.181 40.752C160.49 40.5387 160.832 40.2027 161.205 39.744V34.224H162.517V42H161.429L161.317 40.784H161.269C160.906 41.2107 160.522 41.552 160.117 41.808C159.722 42.064 159.253 42.192 158.709 42.192ZM165.14 34.224H166.452V42H165.14V34.224ZM165.812 32.624C165.556 32.624 165.337 32.544 165.156 32.384C164.985 32.224 164.9 32.0213 164.9 31.776C164.9 31.52 164.985 31.3173 165.156 31.168C165.337 31.008 165.556 30.928 165.812 30.928C166.068 30.928 166.281 31.008 166.452 31.168C166.633 31.3173 166.724 31.52 166.724 31.776C166.724 32.0213 166.633 32.224 166.452 32.384C166.281 32.544 166.068 32.624 165.812 32.624ZM169.078 34.224H170.166L170.278 35.632H170.326C170.592 35.1413 170.912 34.752 171.286 34.464C171.67 34.176 172.086 34.032 172.534 34.032C172.843 34.032 173.12 34.0853 173.366 34.192L173.11 35.344C172.982 35.3013 172.864 35.2693 172.758 35.248C172.651 35.2267 172.518 35.216 172.358 35.216C172.027 35.216 171.68 35.3493 171.318 35.616C170.966 35.8827 170.656 36.3467 170.39 37.008V42H169.078V34.224ZM177.62 42.192C177.098 42.192 176.607 42.1013 176.148 41.92C175.7 41.728 175.306 41.4613 174.964 41.12C174.634 40.768 174.372 40.3413 174.18 39.84C173.988 39.3387 173.892 38.768 173.892 38.128C173.892 37.488 173.988 36.9173 174.18 36.416C174.383 35.904 174.644 35.472 174.964 35.12C175.295 34.768 175.668 34.5013 176.084 34.32C176.5 34.128 176.932 34.032 177.38 34.032C177.871 34.032 178.308 34.1173 178.692 34.288C179.087 34.4587 179.412 34.704 179.668 35.024C179.935 35.344 180.138 35.728 180.276 36.176C180.415 36.624 180.484 37.1253 180.484 37.68C180.484 37.8187 180.479 37.9573 180.468 38.096C180.468 38.224 180.458 38.336 180.436 38.432H175.188C175.242 39.264 175.498 39.9253 175.956 40.416C176.426 40.896 177.034 41.136 177.78 41.136C178.154 41.136 178.495 41.0827 178.804 40.976C179.124 40.8587 179.428 40.7093 179.716 40.528L180.18 41.392C179.839 41.6053 179.46 41.792 179.044 41.952C178.628 42.112 178.154 42.192 177.62 42.192ZM179.332 37.488C179.332 36.6987 179.162 36.1013 178.82 35.696C178.49 35.28 178.02 35.072 177.412 35.072C177.135 35.072 176.868 35.1253 176.612 35.232C176.367 35.3387 176.143 35.4987 175.94 35.712C175.738 35.9147 175.567 36.1653 175.428 36.464C175.3 36.7627 175.215 37.104 175.172 37.488H179.332ZM185.062 42.192C184.08 42.192 183.296 41.84 182.71 41.136C182.134 40.432 181.846 39.4293 181.846 38.128C181.846 37.4987 181.936 36.9333 182.118 36.432C182.31 35.92 182.56 35.488 182.87 35.136C183.179 34.784 183.536 34.512 183.942 34.32C184.347 34.128 184.774 34.032 185.222 34.032C185.67 34.032 186.059 34.112 186.39 34.272C186.72 34.432 187.056 34.6507 187.398 34.928L187.334 33.6V30.608H188.662V42H187.574L187.462 41.088H187.414C187.104 41.3867 186.747 41.648 186.342 41.872C185.947 42.0853 185.52 42.192 185.062 42.192ZM185.35 41.088C185.712 41.088 186.054 41.0027 186.374 40.832C186.694 40.6507 187.014 40.3787 187.334 40.016V35.952C187.003 35.6533 186.683 35.4453 186.374 35.328C186.075 35.2 185.766 35.136 185.446 35.136C185.136 35.136 184.843 35.2107 184.566 35.36C184.299 35.4987 184.064 35.7013 183.862 35.968C183.659 36.224 183.499 36.5333 183.382 36.896C183.264 37.2587 183.206 37.664 183.206 38.112C183.206 39.0507 183.392 39.7813 183.766 40.304C184.139 40.8267 184.667 41.088 185.35 41.088ZM196.932 42.192C196.516 42.192 196.164 42.128 195.876 42C195.599 41.872 195.369 41.696 195.188 41.472C195.017 41.248 194.895 40.976 194.82 40.656C194.745 40.336 194.708 39.984 194.708 39.6V35.296H193.556V34.304L194.772 34.224L194.932 32.048H196.036V34.224H198.132V35.296H196.036V39.616C196.036 40.096 196.121 40.4693 196.292 40.736C196.473 40.992 196.788 41.12 197.236 41.12C197.375 41.12 197.524 41.0987 197.684 41.056C197.844 41.0133 197.988 40.9653 198.116 40.912L198.372 41.904C198.159 41.9787 197.924 42.0427 197.668 42.096C197.423 42.16 197.177 42.192 196.932 42.192ZM202.695 42.192C202.215 42.192 201.757 42.1013 201.319 41.92C200.893 41.7387 200.514 41.4773 200.183 41.136C199.853 40.784 199.586 40.3573 199.383 39.856C199.191 39.344 199.095 38.768 199.095 38.128C199.095 37.4773 199.191 36.9013 199.383 36.4C199.586 35.888 199.853 35.456 200.183 35.104C200.514 34.752 200.893 34.4853 201.319 34.304C201.757 34.1227 202.215 34.032 202.695 34.032C203.175 34.032 203.629 34.1227 204.055 34.304C204.493 34.4853 204.877 34.752 205.207 35.104C205.538 35.456 205.799 35.888 205.991 36.4C206.194 36.9013 206.295 37.4773 206.295 38.128C206.295 38.768 206.194 39.344 205.991 39.856C205.799 40.3573 205.538 40.784 205.207 41.136C204.877 41.4773 204.493 41.7387 204.055 41.92C203.629 42.1013 203.175 42.192 202.695 42.192ZM202.695 41.104C203.026 41.104 203.33 41.0347 203.607 40.896C203.885 40.7467 204.119 40.544 204.311 40.288C204.514 40.0213 204.669 39.7067 204.775 39.344C204.882 38.9813 204.935 38.576 204.935 38.128C204.935 37.68 204.882 37.2747 204.775 36.912C204.669 36.5387 204.514 36.2187 204.311 35.952C204.119 35.6853 203.885 35.4827 203.607 35.344C203.33 35.1947 203.026 35.12 202.695 35.12C202.365 35.12 202.061 35.1947 201.783 35.344C201.506 35.4827 201.266 35.6853 201.063 35.952C200.871 36.2187 200.722 36.5387 200.615 36.912C200.509 37.2747 200.455 37.68 200.455 38.128C200.455 38.576 200.509 38.9813 200.615 39.344C200.722 39.7067 200.871 40.0213 201.063 40.288C201.266 40.544 201.506 40.7467 201.783 40.896C202.061 41.0347 202.365 41.104 202.695 41.104ZM214.698 42.192C214.176 42.192 213.685 42.1013 213.226 41.92C212.778 41.728 212.384 41.4613 212.042 41.12C211.712 40.768 211.45 40.3413 211.258 39.84C211.066 39.3387 210.97 38.768 210.97 38.128C210.97 37.488 211.066 36.9173 211.258 36.416C211.461 35.904 211.722 35.472 212.042 35.12C212.373 34.768 212.746 34.5013 213.162 34.32C213.578 34.128 214.01 34.032 214.458 34.032C214.949 34.032 215.386 34.1173 215.77 34.288C216.165 34.4587 216.49 34.704 216.746 35.024C217.013 35.344 217.216 35.728 217.354 36.176C217.493 36.624 217.562 37.1253 217.562 37.68C217.562 37.8187 217.557 37.9573 217.546 38.096C217.546 38.224 217.536 38.336 217.514 38.432H212.266C212.32 39.264 212.576 39.9253 213.034 40.416C213.504 40.896 214.112 41.136 214.858 41.136C215.232 41.136 215.573 41.0827 215.882 40.976C216.202 40.8587 216.506 40.7093 216.794 40.528L217.258 41.392C216.917 41.6053 216.538 41.792 216.122 41.952C215.706 42.112 215.232 42.192 214.698 42.192ZM216.41 37.488C216.41 36.6987 216.24 36.1013 215.898 35.696C215.568 35.28 215.098 35.072 214.49 35.072C214.213 35.072 213.946 35.1253 213.69 35.232C213.445 35.3387 213.221 35.4987 213.018 35.712C212.816 35.9147 212.645 36.1653 212.506 36.464C212.378 36.7627 212.293 37.104 212.25 37.488H216.41ZM220.831 37.936L218.479 34.224H219.903L220.943 35.936C221.06 36.1493 221.183 36.368 221.311 36.592C221.439 36.8053 221.572 37.0187 221.711 37.232H221.775C221.892 37.0187 222.009 36.8053 222.127 36.592C222.244 36.368 222.361 36.1493 222.479 35.936L223.423 34.224H224.799L222.447 38.08L224.975 42H223.551L222.415 40.192C222.276 39.9573 222.137 39.7227 221.999 39.488C221.86 39.2533 221.716 39.024 221.567 38.8H221.503C221.364 39.024 221.231 39.2533 221.103 39.488C220.975 39.712 220.847 39.9467 220.719 40.192L219.663 42H218.287L220.831 37.936ZM229.322 42.192C228.81 42.192 228.33 42.1013 227.882 41.92C227.434 41.7387 227.044 41.4773 226.714 41.136C226.394 40.784 226.138 40.3573 225.946 39.856C225.764 39.344 225.674 38.768 225.674 38.128C225.674 37.4773 225.775 36.9013 225.978 36.4C226.18 35.888 226.452 35.456 226.794 35.104C227.135 34.752 227.53 34.4853 227.978 34.304C228.436 34.1227 228.916 34.032 229.418 34.032C229.93 34.032 230.367 34.1227 230.73 34.304C231.092 34.4853 231.412 34.6987 231.69 34.944L231.018 35.808C230.794 35.6053 230.554 35.44 230.298 35.312C230.052 35.184 229.775 35.12 229.466 35.12C229.114 35.12 228.788 35.1947 228.49 35.344C228.191 35.4827 227.935 35.6853 227.722 35.952C227.508 36.2187 227.338 36.5387 227.21 36.912C227.092 37.2747 227.034 37.68 227.034 38.128C227.034 38.576 227.092 38.9813 227.21 39.344C227.327 39.7067 227.487 40.0213 227.69 40.288C227.903 40.544 228.159 40.7467 228.458 40.896C228.756 41.0347 229.082 41.104 229.434 41.104C229.796 41.104 230.127 41.0293 230.426 40.88C230.735 40.72 231.012 40.5333 231.258 40.32L231.834 41.2C231.482 41.5093 231.092 41.7547 230.666 41.936C230.239 42.1067 229.791 42.192 229.322 42.192ZM236.355 42.192C235.832 42.192 235.341 42.1013 234.883 41.92C234.435 41.728 234.04 41.4613 233.699 41.12C233.368 40.768 233.107 40.3413 232.915 39.84C232.723 39.3387 232.627 38.768 232.627 38.128C232.627 37.488 232.723 36.9173 232.915 36.416C233.117 35.904 233.379 35.472 233.699 35.12C234.029 34.768 234.403 34.5013 234.819 34.32C235.235 34.128 235.667 34.032 236.115 34.032C236.605 34.032 237.043 34.1173 237.427 34.288C237.821 34.4587 238.147 34.704 238.403 35.024C238.669 35.344 238.872 35.728 239.011 36.176C239.149 36.624 239.219 37.1253 239.219 37.68C239.219 37.8187 239.213 37.9573 239.203 38.096C239.203 38.224 239.192 38.336 239.171 38.432H233.923C233.976 39.264 234.232 39.9253 234.691 40.416C235.16 40.896 235.768 41.136 236.515 41.136C236.888 41.136 237.229 41.0827 237.539 40.976C237.859 40.8587 238.163 40.7093 238.451 40.528L238.915 41.392C238.573 41.6053 238.195 41.792 237.779 41.952C237.363 42.112 236.888 42.192 236.355 42.192ZM238.067 37.488C238.067 36.6987 237.896 36.1013 237.555 35.696C237.224 35.28 236.755 35.072 236.147 35.072C235.869 35.072 235.603 35.1253 235.347 35.232C235.101 35.3387 234.877 35.4987 234.675 35.712C234.472 35.9147 234.301 36.1653 234.163 36.464C234.035 36.7627 233.949 37.104 233.907 37.488H238.067ZM242.532 42.192C242.031 42.192 241.673 42.0427 241.46 41.744C241.247 41.4453 241.14 41.008 241.14 40.432V30.608H242.452V40.528C242.452 40.7413 242.489 40.8907 242.564 40.976C242.639 41.0613 242.724 41.104 242.82 41.104C242.863 41.104 242.9 41.104 242.932 41.104C242.975 41.104 243.033 41.0933 243.108 41.072L243.284 42.064C243.199 42.1067 243.097 42.1387 242.98 42.16C242.863 42.1813 242.713 42.192 242.532 42.192ZM248.421 34.224H249.733V42H248.421V34.224ZM249.093 32.624C248.837 32.624 248.619 32.544 248.437 32.384C248.267 32.224 248.181 32.0213 248.181 31.776C248.181 31.52 248.267 31.3173 248.437 31.168C248.619 31.008 248.837 30.928 249.093 30.928C249.349 30.928 249.563 31.008 249.733 31.168C249.915 31.3173 250.005 31.52 250.005 31.776C250.005 32.0213 249.915 32.224 249.733 32.384C249.563 32.544 249.349 32.624 249.093 32.624ZM252.359 34.224H253.447L253.559 35.344H253.607C253.98 34.9707 254.37 34.6613 254.775 34.416C255.191 34.16 255.671 34.032 256.215 34.032C257.036 34.032 257.634 34.288 258.007 34.8C258.391 35.312 258.583 36.0693 258.583 37.072V42H257.271V37.248C257.271 36.512 257.154 35.984 256.919 35.664C256.684 35.3333 256.311 35.168 255.799 35.168C255.394 35.168 255.036 35.2693 254.727 35.472C254.418 35.6747 254.066 35.9733 253.671 36.368V42H252.359V34.224ZM266.104 42.192C265.453 42.192 264.909 42 264.472 41.616C264.045 41.232 263.832 40.688 263.832 39.984C263.832 39.1307 264.211 38.48 264.968 38.032C265.725 37.5733 266.936 37.2533 268.6 37.072C268.6 36.8267 268.573 36.5867 268.52 36.352C268.477 36.1173 268.397 35.9093 268.28 35.728C268.163 35.5467 267.997 35.4027 267.784 35.296C267.581 35.1787 267.32 35.12 267 35.12C266.552 35.12 266.131 35.2053 265.736 35.376C265.341 35.5467 264.989 35.7387 264.68 35.952L264.168 35.04C264.531 34.8053 264.973 34.5813 265.496 34.368C266.019 34.144 266.595 34.032 267.224 34.032C268.173 34.032 268.861 34.3253 269.288 34.912C269.715 35.488 269.928 36.2613 269.928 37.232V42H268.84L268.728 41.072H268.68C268.307 41.3813 267.907 41.648 267.48 41.872C267.053 42.0853 266.595 42.192 266.104 42.192ZM266.488 41.136C266.861 41.136 267.213 41.0507 267.544 40.88C267.875 40.6987 268.227 40.4373 268.6 40.096V37.936C267.949 38.0213 267.4 38.1227 266.952 38.24C266.515 38.3573 266.157 38.496 265.88 38.656C265.613 38.816 265.416 39.0027 265.288 39.216C265.171 39.4187 265.112 39.6427 265.112 39.888C265.112 40.336 265.245 40.656 265.512 40.848C265.779 41.04 266.104 41.136 266.488 41.136ZM272.375 34.224H273.463L273.575 35.344H273.623C273.996 34.9707 274.385 34.6613 274.791 34.416C275.207 34.16 275.687 34.032 276.231 34.032C277.052 34.032 277.649 34.288 278.023 34.8C278.407 35.312 278.599 36.0693 278.599 37.072V42H277.287V37.248C277.287 36.512 277.169 35.984 276.935 35.664C276.7 35.3333 276.327 35.168 275.815 35.168C275.409 35.168 275.052 35.2693 274.743 35.472C274.433 35.6747 274.081 35.9733 273.687 36.368V42H272.375V34.224ZM287.48 42.192C286.957 42.192 286.466 42.1013 286.008 41.92C285.56 41.728 285.165 41.4613 284.824 41.12C284.493 40.768 284.232 40.3413 284.04 39.84C283.848 39.3387 283.752 38.768 283.752 38.128C283.752 37.488 283.848 36.9173 284.04 36.416C284.242 35.904 284.504 35.472 284.824 35.12C285.154 34.768 285.528 34.5013 285.944 34.32C286.36 34.128 286.792 34.032 287.24 34.032C287.73 34.032 288.168 34.1173 288.552 34.288C288.946 34.4587 289.272 34.704 289.528 35.024C289.794 35.344 289.997 35.728 290.136 36.176C290.274 36.624 290.344 37.1253 290.344 37.68C290.344 37.8187 290.338 37.9573 290.328 38.096C290.328 38.224 290.317 38.336 290.296 38.432H285.048C285.101 39.264 285.357 39.9253 285.816 40.416C286.285 40.896 286.893 41.136 287.64 41.136C288.013 41.136 288.354 41.0827 288.664 40.976C288.984 40.8587 289.288 40.7093 289.576 40.528L290.04 41.392C289.698 41.6053 289.32 41.792 288.904 41.952C288.488 42.112 288.013 42.192 287.48 42.192ZM289.192 37.488C289.192 36.6987 289.021 36.1013 288.68 35.696C288.349 35.28 287.88 35.072 287.272 35.072C286.994 35.072 286.728 35.1253 286.472 35.232C286.226 35.3387 286.002 35.4987 285.8 35.712C285.597 35.9147 285.426 36.1653 285.288 36.464C285.16 36.7627 285.074 37.104 285.032 37.488H289.192ZM292.265 34.224H293.353L293.465 35.344H293.513C293.886 34.9707 294.276 34.6613 294.681 34.416C295.097 34.16 295.577 34.032 296.121 34.032C296.942 34.032 297.54 34.288 297.913 34.8C298.297 35.312 298.489 36.0693 298.489 37.072V42H297.177V37.248C297.177 36.512 297.06 35.984 296.825 35.664C296.59 35.3333 296.217 35.168 295.705 35.168C295.3 35.168 294.942 35.2693 294.633 35.472C294.324 35.6747 293.972 35.9733 293.577 36.368V42H292.265V34.224ZM303.463 42.192C303.047 42.192 302.695 42.128 302.407 42C302.13 41.872 301.9 41.696 301.719 41.472C301.548 41.248 301.426 40.976 301.351 40.656C301.276 40.336 301.239 39.984 301.239 39.6V35.296H300.087V34.304L301.303 34.224L301.463 32.048H302.567V34.224H304.663V35.296H302.567V39.616C302.567 40.096 302.652 40.4693 302.823 40.736C303.004 40.992 303.319 41.12 303.767 41.12C303.906 41.12 304.055 41.0987 304.215 41.056C304.375 41.0133 304.519 40.9653 304.647 40.912L304.903 41.904C304.69 41.9787 304.455 42.0427 304.199 42.096C303.954 42.16 303.708 42.192 303.463 42.192ZM306.421 34.224H307.509L307.621 35.632H307.669C307.936 35.1413 308.256 34.752 308.629 34.464C309.013 34.176 309.429 34.032 309.877 34.032C310.187 34.032 310.464 34.0853 310.709 34.192L310.453 35.344C310.325 35.3013 310.208 35.2693 310.101 35.248C309.995 35.2267 309.861 35.216 309.701 35.216C309.371 35.216 309.024 35.3493 308.661 35.616C308.309 35.8827 308 36.3467 307.733 37.008V42H306.421V34.224ZM312.503 45.344C312.321 45.344 312.156 45.328 312.007 45.296C311.857 45.2747 311.719 45.2373 311.59 45.184L311.847 44.144C311.932 44.1653 312.028 44.1867 312.135 44.208C312.241 44.24 312.343 44.256 312.439 44.256C312.887 44.256 313.249 44.096 313.527 43.776C313.815 43.4667 314.039 43.072 314.199 42.592L314.375 42.016L311.255 34.224H312.615L314.199 38.528C314.316 38.8693 314.439 39.232 314.567 39.616C314.705 39.9893 314.833 40.3573 314.951 40.72H315.015C315.132 40.368 315.244 40 315.351 39.616C315.457 39.232 315.564 38.8693 315.671 38.528L317.063 34.224H318.343L315.415 42.64C315.276 43.024 315.121 43.3813 314.951 43.712C314.78 44.0427 314.577 44.3253 314.343 44.56C314.108 44.8053 313.841 44.9973 313.543 45.136C313.244 45.2747 312.897 45.344 312.503 45.344ZM319.187 37.488H322.867V38.496H319.187V37.488ZM326.204 42.192C325.703 42.192 325.345 42.0427 325.132 41.744C324.919 41.4453 324.812 41.008 324.812 40.432V30.608H326.124V40.528C326.124 40.7413 326.161 40.8907 326.236 40.976C326.311 41.0613 326.396 41.104 326.492 41.104C326.535 41.104 326.572 41.104 326.604 41.104C326.647 41.104 326.705 41.0933 326.78 41.072L326.956 42.064C326.871 42.1067 326.769 42.1387 326.652 42.16C326.535 42.1813 326.385 42.192 326.204 42.192ZM332.042 42.192C331.519 42.192 331.029 42.1013 330.57 41.92C330.122 41.728 329.727 41.4613 329.386 41.12C329.055 40.768 328.794 40.3413 328.602 39.84C328.41 39.3387 328.314 38.768 328.314 38.128C328.314 37.488 328.41 36.9173 328.602 36.416C328.805 35.904 329.066 35.472 329.386 35.12C329.717 34.768 330.09 34.5013 330.506 34.32C330.922 34.128 331.354 34.032 331.802 34.032C332.293 34.032 332.73 34.1173 333.114 34.288C333.509 34.4587 333.834 34.704 334.09 35.024C334.357 35.344 334.559 35.728 334.698 36.176C334.837 36.624 334.906 37.1253 334.906 37.68C334.906 37.8187 334.901 37.9573 334.89 38.096C334.89 38.224 334.879 38.336 334.858 38.432H329.61C329.663 39.264 329.919 39.9253 330.378 40.416C330.847 40.896 331.455 41.136 332.202 41.136C332.575 41.136 332.917 41.0827 333.226 40.976C333.546 40.8587 333.85 40.7093 334.138 40.528L334.602 41.392C334.261 41.6053 333.882 41.792 333.466 41.952C333.05 42.112 332.575 42.192 332.042 42.192ZM333.754 37.488C333.754 36.6987 333.583 36.1013 333.242 35.696C332.911 35.28 332.442 35.072 331.834 35.072C331.557 35.072 331.29 35.1253 331.034 35.232C330.789 35.3387 330.565 35.4987 330.362 35.712C330.159 35.9147 329.989 36.1653 329.85 36.464C329.722 36.7627 329.637 37.104 329.594 37.488H333.754ZM335.786 34.224H337.146L338.618 38.64C338.735 39.024 338.852 39.408 338.97 39.792C339.098 40.176 339.22 40.5547 339.338 40.928H339.402C339.519 40.5547 339.636 40.176 339.754 39.792C339.871 39.408 339.988 39.024 340.106 38.64L341.578 34.224H342.874L340.122 42H338.586L335.786 34.224ZM347.464 42.192C346.941 42.192 346.451 42.1013 345.992 41.92C345.544 41.728 345.149 41.4613 344.808 41.12C344.477 40.768 344.216 40.3413 344.024 39.84C343.832 39.3387 343.736 38.768 343.736 38.128C343.736 37.488 343.832 36.9173 344.024 36.416C344.227 35.904 344.488 35.472 344.808 35.12C345.139 34.768 345.512 34.5013 345.928 34.32C346.344 34.128 346.776 34.032 347.224 34.032C347.715 34.032 348.152 34.1173 348.536 34.288C348.931 34.4587 349.256 34.704 349.512 35.024C349.779 35.344 349.981 35.728 350.12 36.176C350.259 36.624 350.328 37.1253 350.328 37.68C350.328 37.8187 350.323 37.9573 350.312 38.096C350.312 38.224 350.301 38.336 350.28 38.432H345.032C345.085 39.264 345.341 39.9253 345.8 40.416C346.269 40.896 346.877 41.136 347.624 41.136C347.997 41.136 348.339 41.0827 348.648 40.976C348.968 40.8587 349.272 40.7093 349.56 40.528L350.024 41.392C349.683 41.6053 349.304 41.792 348.888 41.952C348.472 42.112 347.997 42.192 347.464 42.192ZM349.176 37.488C349.176 36.6987 349.005 36.1013 348.664 35.696C348.333 35.28 347.864 35.072 347.256 35.072C346.979 35.072 346.712 35.1253 346.456 35.232C346.211 35.3387 345.987 35.4987 345.784 35.712C345.581 35.9147 345.411 36.1653 345.272 36.464C345.144 36.7627 345.059 37.104 345.016 37.488H349.176ZM353.642 42.192C353.14 42.192 352.783 42.0427 352.57 41.744C352.356 41.4453 352.25 41.008 352.25 40.432V30.608H353.562V40.528C353.562 40.7413 353.599 40.8907 353.674 40.976C353.748 41.0613 353.834 41.104 353.93 41.104C353.972 41.104 354.01 41.104 354.042 41.104C354.084 41.104 354.143 41.0933 354.218 41.072L354.394 42.064C354.308 42.1067 354.207 42.1387 354.09 42.16C353.972 42.1813 353.823 42.192 353.642 42.192ZM36.384 66.192C35.872 66.192 35.392 66.1013 34.944 65.92C34.496 65.7387 34.1067 65.4773 33.776 65.136C33.456 64.784 33.2 64.3573 33.008 63.856C32.8267 63.344 32.736 62.768 32.736 62.128C32.736 61.4773 32.8373 60.9013 33.04 60.4C33.2427 59.888 33.5147 59.456 33.856 59.104C34.1973 58.752 34.592 58.4853 35.04 58.304C35.4987 58.1227 35.9787 58.032 36.48 58.032C36.992 58.032 37.4293 58.1227 37.792 58.304C38.1547 58.4853 38.4747 58.6987 38.752 58.944L38.08 59.808C37.856 59.6053 37.616 59.44 37.36 59.312C37.1147 59.184 36.8373 59.12 36.528 59.12C36.176 59.12 35.8507 59.1947 35.552 59.344C35.2533 59.4827 34.9973 59.6853 34.784 59.952C34.5707 60.2187 34.4 60.5387 34.272 60.912C34.1547 61.2747 34.096 61.68 34.096 62.128C34.096 62.576 34.1547 62.9813 34.272 63.344C34.3893 63.7067 34.5493 64.0213 34.752 64.288C34.9653 64.544 35.2213 64.7467 35.52 64.896C35.8187 65.0347 36.144 65.104 36.496 65.104C36.8587 65.104 37.1893 65.0293 37.488 64.88C37.7973 64.72 38.0747 64.5333 38.32 64.32L38.896 65.2C38.544 65.5093 38.1547 65.7547 37.728 65.936C37.3013 66.1067 36.8533 66.192 36.384 66.192ZM40.8306 69.344C40.6493 69.344 40.484 69.328 40.3346 69.296C40.1853 69.2747 40.0466 69.2373 39.9186 69.184L40.1746 68.144C40.26 68.1653 40.356 68.1867 40.4626 68.208C40.5693 68.24 40.6706 68.256 40.7666 68.256C41.2146 68.256 41.5773 68.096 41.8546 67.776C42.1426 67.4667 42.3666 67.072 42.5266 66.592L42.7026 66.016L39.5826 58.224H40.9426L42.5266 62.528C42.644 62.8693 42.7666 63.232 42.8946 63.616C43.0333 63.9893 43.1613 64.3573 43.2786 64.72H43.3426C43.46 64.368 43.572 64 43.6786 63.616C43.7853 63.232 43.892 62.8693 43.9986 62.528L45.3906 58.224H46.6706L43.7426 66.64C43.604 67.024 43.4493 67.3813 43.2786 67.712C43.108 68.0427 42.9053 68.3253 42.6706 68.56C42.436 68.8053 42.1693 68.9973 41.8706 69.136C41.572 69.2747 41.2253 69.344 40.8306 69.344ZM51.6114 66.192C51.2487 66.192 50.87 66.1067 50.4754 65.936C50.0914 65.7547 49.7287 65.5093 49.3874 65.2H49.3394L49.2274 66H48.1714V54.608H49.4834V57.712L49.4514 59.12C49.8034 58.8107 50.1874 58.5547 50.6034 58.352C51.0194 58.1387 51.446 58.032 51.8834 58.032C52.3847 58.032 52.8274 58.128 53.2114 58.32C53.5954 58.5013 53.9154 58.768 54.1714 59.12C54.438 59.4613 54.6354 59.8773 54.7634 60.368C54.902 60.848 54.9714 61.3867 54.9714 61.984C54.9714 62.6453 54.8807 63.2373 54.6994 63.76C54.518 64.2827 54.2727 64.7253 53.9634 65.088C53.654 65.4507 53.2967 65.728 52.8914 65.92C52.486 66.1013 52.0594 66.192 51.6114 66.192ZM51.3874 65.088C51.7074 65.088 52.0007 65.0187 52.2674 64.88C52.5447 64.7307 52.7794 64.528 52.9714 64.272C53.174 64.0053 53.3287 63.68 53.4354 63.296C53.5527 62.912 53.6114 62.48 53.6114 62C53.6114 61.5733 53.574 61.184 53.4994 60.832C53.4247 60.48 53.302 60.1813 53.1314 59.936C52.9714 59.68 52.758 59.4827 52.4914 59.344C52.2354 59.2053 51.926 59.136 51.5634 59.136C50.934 59.136 50.2407 59.488 49.4834 60.192V64.272C49.8247 64.5707 50.1607 64.784 50.4914 64.912C50.8327 65.0293 51.1314 65.088 51.3874 65.088ZM60.1671 66.192C59.6445 66.192 59.1538 66.1013 58.6951 65.92C58.2471 65.728 57.8525 65.4613 57.5111 65.12C57.1805 64.768 56.9191 64.3413 56.7271 63.84C56.5351 63.3387 56.4391 62.768 56.4391 62.128C56.4391 61.488 56.5351 60.9173 56.7271 60.416C56.9298 59.904 57.1911 59.472 57.5111 59.12C57.8418 58.768 58.2151 58.5013 58.6311 58.32C59.0471 58.128 59.4791 58.032 59.9271 58.032C60.4178 58.032 60.8551 58.1173 61.2391 58.288C61.6338 58.4587 61.9591 58.704 62.2151 59.024C62.4818 59.344 62.6845 59.728 62.8231 60.176C62.9618 60.624 63.0311 61.1253 63.0311 61.68C63.0311 61.8187 63.0258 61.9573 63.0151 62.096C63.0151 62.224 63.0045 62.336 62.9831 62.432H57.7351C57.7885 63.264 58.0445 63.9253 58.5031 64.416C58.9725 64.896 59.5805 65.136 60.3271 65.136C60.7005 65.136 61.0418 65.0827 61.3511 64.976C61.6711 64.8587 61.9751 64.7093 62.2631 64.528L62.7271 65.392C62.3858 65.6053 62.0071 65.792 61.5911 65.952C61.1751 66.112 60.7005 66.192 60.1671 66.192ZM61.8791 61.488C61.8791 60.6987 61.7085 60.1013 61.3671 59.696C61.0365 59.28 60.5671 59.072 59.9591 59.072C59.6818 59.072 59.4151 59.1253 59.1591 59.232C58.9138 59.3387 58.6898 59.4987 58.4871 59.712C58.2845 59.9147 58.1138 60.1653 57.9751 60.464C57.8471 60.7627 57.7618 61.104 57.7191 61.488H61.8791ZM64.9526 58.224H66.0406L66.1526 59.632H66.2006C66.4673 59.1413 66.7873 58.752 67.1606 58.464C67.5446 58.176 67.9606 58.032 68.4086 58.032C68.718 58.032 68.9953 58.0853 69.2406 58.192L68.9846 59.344C68.8566 59.3013 68.7393 59.2693 68.6326 59.248C68.526 59.2267 68.3926 59.216 68.2326 59.216C67.902 59.216 67.5553 59.3493 67.1926 59.616C66.8406 59.8827 66.5313 60.3467 66.2646 61.008V66H64.9526V58.224ZM72.469 66.192C71.9143 66.192 71.3863 66.0907 70.885 65.888C70.3837 65.6853 69.9463 65.4293 69.573 65.12L70.229 64.24C70.5703 64.5173 70.917 64.7413 71.269 64.912C71.6317 65.0827 72.0477 65.168 72.517 65.168C73.029 65.168 73.413 65.0507 73.669 64.816C73.925 64.5813 74.053 64.2933 74.053 63.952C74.053 63.7493 73.9997 63.5733 73.893 63.424C73.7863 63.2747 73.6477 63.1467 73.477 63.04C73.317 62.9227 73.1303 62.8213 72.917 62.736C72.7037 62.6507 72.4903 62.5653 72.277 62.48C71.9997 62.384 71.7223 62.2773 71.445 62.16C71.1677 62.032 70.917 61.8827 70.693 61.712C70.4797 61.5307 70.3037 61.3227 70.165 61.088C70.0263 60.8533 69.957 60.5707 69.957 60.24C69.957 59.9307 70.0157 59.6427 70.133 59.376C70.261 59.0987 70.437 58.864 70.661 58.672C70.8957 58.4693 71.1783 58.3147 71.509 58.208C71.8397 58.0907 72.213 58.032 72.629 58.032C73.1197 58.032 73.5677 58.1173 73.973 58.288C74.389 58.4587 74.7463 58.6667 75.045 58.912L74.421 59.744C74.1543 59.5413 73.877 59.376 73.589 59.248C73.301 59.12 72.9863 59.056 72.645 59.056C72.1543 59.056 71.7917 59.168 71.557 59.392C71.333 59.616 71.221 59.8773 71.221 60.176C71.221 60.3573 71.269 60.5173 71.365 60.656C71.461 60.784 71.589 60.9013 71.749 61.008C71.909 61.104 72.0903 61.1947 72.293 61.28C72.5063 61.3547 72.725 61.4347 72.949 61.52C73.2263 61.6267 73.5037 61.7387 73.781 61.856C74.069 61.9733 74.325 62.1227 74.549 62.304C74.773 62.4747 74.9543 62.688 75.093 62.944C75.2423 63.2 75.317 63.5093 75.317 63.872C75.317 64.192 75.253 64.4907 75.125 64.768C75.0077 65.0453 74.8263 65.2907 74.581 65.504C74.3463 65.7173 74.0477 65.8827 73.685 66C73.333 66.128 72.9277 66.192 72.469 66.192ZM80.2921 66.192C79.7695 66.192 79.2788 66.1013 78.8201 65.92C78.3721 65.728 77.9775 65.4613 77.6361 65.12C77.3055 64.768 77.0441 64.3413 76.8521 63.84C76.6601 63.3387 76.5641 62.768 76.5641 62.128C76.5641 61.488 76.6601 60.9173 76.8521 60.416C77.0548 59.904 77.3161 59.472 77.6361 59.12C77.9668 58.768 78.3401 58.5013 78.7561 58.32C79.1721 58.128 79.6041 58.032 80.0521 58.032C80.5428 58.032 80.9801 58.1173 81.3641 58.288C81.7588 58.4587 82.0841 58.704 82.3401 59.024C82.6068 59.344 82.8095 59.728 82.9481 60.176C83.0868 60.624 83.1561 61.1253 83.1561 61.68C83.1561 61.8187 83.1508 61.9573 83.1401 62.096C83.1401 62.224 83.1295 62.336 83.1081 62.432H77.8601C77.9135 63.264 78.1695 63.9253 78.6281 64.416C79.0975 64.896 79.7055 65.136 80.4521 65.136C80.8255 65.136 81.1668 65.0827 81.4761 64.976C81.7961 64.8587 82.1001 64.7093 82.3881 64.528L82.8521 65.392C82.5108 65.6053 82.1321 65.792 81.7161 65.952C81.3001 66.112 80.8255 66.192 80.2921 66.192ZM82.0041 61.488C82.0041 60.6987 81.8335 60.1013 81.4921 59.696C81.1615 59.28 80.6921 59.072 80.0841 59.072C79.8068 59.072 79.5401 59.1253 79.2841 59.232C79.0388 59.3387 78.8148 59.4987 78.6121 59.712C78.4095 59.9147 78.2388 60.1653 78.1001 60.464C77.9721 60.7627 77.8868 61.104 77.8441 61.488H82.0041ZM88.1496 66.192C87.6376 66.192 87.1576 66.1013 86.7096 65.92C86.2616 65.7387 85.8723 65.4773 85.5416 65.136C85.2216 64.784 84.9656 64.3573 84.7736 63.856C84.5923 63.344 84.5016 62.768 84.5016 62.128C84.5016 61.4773 84.603 60.9013 84.8056 60.4C85.0083 59.888 85.2803 59.456 85.6216 59.104C85.963 58.752 86.3576 58.4853 86.8056 58.304C87.2643 58.1227 87.7443 58.032 88.2456 58.032C88.7576 58.032 89.195 58.1227 89.5576 58.304C89.9203 58.4853 90.2403 58.6987 90.5176 58.944L89.8456 59.808C89.6216 59.6053 89.3816 59.44 89.1256 59.312C88.8803 59.184 88.603 59.12 88.2936 59.12C87.9416 59.12 87.6163 59.1947 87.3176 59.344C87.019 59.4827 86.763 59.6853 86.5496 59.952C86.3363 60.2187 86.1656 60.5387 86.0376 60.912C85.9203 61.2747 85.8616 61.68 85.8616 62.128C85.8616 62.576 85.9203 62.9813 86.0376 63.344C86.155 63.7067 86.315 64.0213 86.5176 64.288C86.731 64.544 86.987 64.7467 87.2856 64.896C87.5843 65.0347 87.9096 65.104 88.2616 65.104C88.6243 65.104 88.955 65.0293 89.2536 64.88C89.563 64.72 89.8403 64.5333 90.0856 64.32L90.6616 65.2C90.3096 65.5093 89.9203 65.7547 89.4936 65.936C89.067 66.1067 88.619 66.192 88.1496 66.192ZM94.6465 66.192C93.8145 66.192 93.2065 65.936 92.8225 65.424C92.4492 64.912 92.2625 64.1547 92.2625 63.152V58.224H93.5905V62.976C93.5905 63.712 93.7025 64.2453 93.9265 64.576C94.1612 64.896 94.5345 65.056 95.0465 65.056C95.4518 65.056 95.8092 64.9547 96.1185 64.752C96.4278 64.5387 96.7692 64.2027 97.1425 63.744V58.224H98.4545V66H97.3665L97.2545 64.784H97.2065C96.8438 65.2107 96.4598 65.552 96.0545 65.808C95.6598 66.064 95.1905 66.192 94.6465 66.192ZM101.078 58.224H102.166L102.278 59.632H102.326C102.592 59.1413 102.912 58.752 103.286 58.464C103.67 58.176 104.086 58.032 104.534 58.032C104.843 58.032 105.12 58.0853 105.366 58.192L105.11 59.344C104.982 59.3013 104.864 59.2693 104.758 59.248C104.651 59.2267 104.518 59.216 104.358 59.216C104.027 59.216 103.68 59.3493 103.318 59.616C102.966 59.8827 102.656 60.3467 102.39 61.008V66H101.078V58.224ZM106.625 58.224H107.937V66H106.625V58.224ZM107.297 56.624C107.041 56.624 106.822 56.544 106.641 56.384C106.47 56.224 106.385 56.0213 106.385 55.776C106.385 55.52 106.47 55.3173 106.641 55.168C106.822 55.008 107.041 54.928 107.297 54.928C107.553 54.928 107.766 55.008 107.937 55.168C108.118 55.3173 108.209 55.52 108.209 55.776C108.209 56.0213 108.118 56.224 107.937 56.384C107.766 56.544 107.553 56.624 107.297 56.624ZM113.01 66.192C112.594 66.192 112.242 66.128 111.954 66C111.677 65.872 111.447 65.696 111.266 65.472C111.095 65.248 110.973 64.976 110.898 64.656C110.823 64.336 110.786 63.984 110.786 63.6V59.296H109.634V58.304L110.85 58.224L111.01 56.048H112.114V58.224H114.21V59.296H112.114V63.616C112.114 64.096 112.199 64.4693 112.37 64.736C112.551 64.992 112.866 65.12 113.314 65.12C113.453 65.12 113.602 65.0987 113.762 65.056C113.922 65.0133 114.066 64.9653 114.194 64.912L114.45 65.904C114.237 65.9787 114.002 66.0427 113.746 66.096C113.501 66.16 113.255 66.192 113.01 66.192ZM116.096 69.344C115.915 69.344 115.75 69.328 115.6 69.296C115.451 69.2747 115.312 69.2373 115.184 69.184L115.44 68.144C115.526 68.1653 115.622 68.1867 115.728 68.208C115.835 68.24 115.936 68.256 116.032 68.256C116.48 68.256 116.843 68.096 117.12 67.776C117.408 67.4667 117.632 67.072 117.792 66.592L117.968 66.016L114.848 58.224H116.208L117.792 62.528C117.91 62.8693 118.032 63.232 118.16 63.616C118.299 63.9893 118.427 64.3573 118.544 64.72H118.608C118.726 64.368 118.838 64 118.944 63.616C119.051 63.232 119.158 62.8693 119.264 62.528L120.656 58.224H121.936L119.008 66.64C118.87 67.024 118.715 67.3813 118.544 67.712C118.374 68.0427 118.171 68.3253 117.936 68.56C117.702 68.8053 117.435 68.9973 117.136 69.136C116.838 69.2747 116.491 69.344 116.096 69.344ZM126.64 58.224H127.728L127.84 59.632H127.888C128.155 59.1413 128.475 58.752 128.848 58.464C129.232 58.176 129.648 58.032 130.096 58.032C130.405 58.032 130.683 58.0853 130.928 58.192L130.672 59.344C130.544 59.3013 130.427 59.2693 130.32 59.248C130.213 59.2267 130.08 59.216 129.92 59.216C129.589 59.216 129.243 59.3493 128.88 59.616C128.528 59.8827 128.219 60.3467 127.952 61.008V66H126.64V58.224ZM135.055 66.192C134.575 66.192 134.116 66.1013 133.679 65.92C133.252 65.7387 132.873 65.4773 132.543 65.136C132.212 64.784 131.945 64.3573 131.743 63.856C131.551 63.344 131.455 62.768 131.455 62.128C131.455 61.4773 131.551 60.9013 131.743 60.4C131.945 59.888 132.212 59.456 132.543 59.104C132.873 58.752 133.252 58.4853 133.679 58.304C134.116 58.1227 134.575 58.032 135.055 58.032C135.535 58.032 135.988 58.1227 136.415 58.304C136.852 58.4853 137.236 58.752 137.567 59.104C137.897 59.456 138.159 59.888 138.351 60.4C138.553 60.9013 138.655 61.4773 138.655 62.128C138.655 62.768 138.553 63.344 138.351 63.856C138.159 64.3573 137.897 64.784 137.567 65.136C137.236 65.4773 136.852 65.7387 136.415 65.92C135.988 66.1013 135.535 66.192 135.055 66.192ZM135.055 65.104C135.385 65.104 135.689 65.0347 135.967 64.896C136.244 64.7467 136.479 64.544 136.671 64.288C136.873 64.0213 137.028 63.7067 137.135 63.344C137.241 62.9813 137.295 62.576 137.295 62.128C137.295 61.68 137.241 61.2747 137.135 60.912C137.028 60.5387 136.873 60.2187 136.671 59.952C136.479 59.6853 136.244 59.4827 135.967 59.344C135.689 59.1947 135.385 59.12 135.055 59.12C134.724 59.12 134.42 59.1947 134.143 59.344C133.865 59.4827 133.625 59.6853 133.423 59.952C133.231 60.2187 133.081 60.5387 132.975 60.912C132.868 61.2747 132.815 61.68 132.815 62.128C132.815 62.576 132.868 62.9813 132.975 63.344C133.081 63.7067 133.231 64.0213 133.423 64.288C133.625 64.544 133.865 64.7467 134.143 64.896C134.42 65.0347 134.724 65.104 135.055 65.104ZM142.095 66.192C141.593 66.192 141.236 66.0427 141.023 65.744C140.809 65.4453 140.703 65.008 140.703 64.432V54.608H142.015V64.528C142.015 64.7413 142.052 64.8907 142.127 64.976C142.201 65.0613 142.287 65.104 142.383 65.104C142.425 65.104 142.463 65.104 142.495 65.104C142.537 65.104 142.596 65.0933 142.671 65.072L142.847 66.064C142.761 66.1067 142.66 66.1387 142.543 66.16C142.425 66.1813 142.276 66.192 142.095 66.192ZM147.933 66.192C147.41 66.192 146.919 66.1013 146.461 65.92C146.013 65.728 145.618 65.4613 145.277 65.12C144.946 64.768 144.685 64.3413 144.493 63.84C144.301 63.3387 144.205 62.768 144.205 62.128C144.205 61.488 144.301 60.9173 144.493 60.416C144.695 59.904 144.957 59.472 145.277 59.12C145.607 58.768 145.981 58.5013 146.397 58.32C146.813 58.128 147.245 58.032 147.693 58.032C148.183 58.032 148.621 58.1173 149.005 58.288C149.399 58.4587 149.725 58.704 149.981 59.024C150.247 59.344 150.45 59.728 150.589 60.176C150.727 60.624 150.797 61.1253 150.797 61.68C150.797 61.8187 150.791 61.9573 150.781 62.096C150.781 62.224 150.77 62.336 150.749 62.432H145.501C145.554 63.264 145.81 63.9253 146.269 64.416C146.738 64.896 147.346 65.136 148.093 65.136C148.466 65.136 148.807 65.0827 149.117 64.976C149.437 64.8587 149.741 64.7093 150.029 64.528L150.493 65.392C150.151 65.6053 149.773 65.792 149.357 65.952C148.941 66.112 148.466 66.192 147.933 66.192ZM149.645 61.488C149.645 60.6987 149.474 60.1013 149.133 59.696C148.802 59.28 148.333 59.072 147.725 59.072C147.447 59.072 147.181 59.1253 146.925 59.232C146.679 59.3387 146.455 59.4987 146.253 59.712C146.05 59.9147 145.879 60.1653 145.741 60.464C145.613 60.7627 145.527 61.104 145.485 61.488H149.645ZM153.406 66.192C153.14 66.192 152.91 66.1013 152.718 65.92C152.537 65.728 152.446 65.488 152.446 65.2C152.446 64.8907 152.537 64.6453 152.718 64.464C152.91 64.272 153.14 64.176 153.406 64.176C153.662 64.176 153.881 64.272 154.062 64.464C154.254 64.6453 154.35 64.8907 154.35 65.2C154.35 65.488 154.254 65.728 154.062 65.92C153.881 66.1013 153.662 66.192 153.406 66.192Z" fill="white"/>
</svg>
