<svg width="23" height="24" viewBox="0 0 23 24" fill="none" xmlns="http://www.w3.org/2000/svg">
<g id="header_icon_1.svg">
<path id="Vector" d="M7.45022 19.7292C7.42257 19.7292 7.38569 19.7477 7.35803 19.7477C5.56956 18.8626 4.11298 17.3968 3.21875 15.6084C3.21875 15.5807 3.23719 15.5439 3.23719 15.5162C4.36189 15.8481 5.52347 16.097 6.67584 16.2906C6.87865 17.4522 7.11834 18.6045 7.45022 19.7292Z" fill="white"/>
<path id="Vector_2" d="M19.7009 15.6176C18.7882 17.4522 17.2671 18.9364 15.4141 19.8307C15.7644 18.6599 16.0594 17.4798 16.253 16.2906C17.4146 16.097 18.5577 15.8481 19.6824 15.5162C19.6732 15.5531 19.7009 15.59 19.7009 15.6176Z" fill="white"/>
<path id="Vector_3" d="M19.7746 7.55951C18.613 7.20919 17.4422 6.92341 16.253 6.72059C16.0594 5.53135 15.7737 4.35134 15.4141 3.19897C17.3224 4.11164 18.8619 5.6512 19.7746 7.55951Z" fill="white"/>
<path id="Vector_4" d="M7.44975 3.30048C7.11787 4.42519 6.87818 5.56832 6.68459 6.7299C5.49535 6.91428 4.31533 7.20929 3.14453 7.55961C4.03876 5.70661 5.52301 4.18549 7.35757 3.27283C7.38522 3.27283 7.4221 3.30048 7.44975 3.30048Z" fill="white"/>
<path id="Vector_5" d="M14.6809 6.52725C12.5421 6.28756 10.3848 6.28756 8.24609 6.52725C8.47656 5.26426 8.77157 4.00127 9.18645 2.78438C9.20485 2.71063 9.19565 2.65532 9.20485 2.58157C9.93315 2.40641 10.6799 2.29578 11.4634 2.29578C12.2378 2.29578 12.9938 2.40641 13.7129 2.58157C13.7221 2.65532 13.7221 2.71063 13.7405 2.78438C14.1554 4.0105 14.4504 5.26426 14.6809 6.52725Z" fill="white"/>
<path id="Vector_6" d="M6.47366 14.7316C5.20146 14.501 3.94768 14.206 2.73079 13.7912C2.65704 13.7727 2.60173 13.782 2.52797 13.7727C2.35282 13.0445 2.24219 12.2977 2.24219 11.5141C2.24219 10.7397 2.35282 9.98384 2.52797 9.26473C2.60173 9.25553 2.65704 9.25553 2.73079 9.23705C3.9569 8.83144 5.20146 8.52722 6.47366 8.29675C6.24319 10.4355 6.24319 12.5927 6.47366 14.7316Z" fill="white"/>
<path id="Vector_7" d="M20.6807 11.5141C20.6807 12.2977 20.57 13.0445 20.3949 13.7727C20.3211 13.782 20.2658 13.7727 20.192 13.7912C18.966 14.1968 17.7122 14.501 16.4492 14.7316C16.6889 12.5927 16.6889 10.4355 16.4492 8.29675C17.7122 8.52722 18.9752 8.82222 20.192 9.23705C20.2658 9.25553 20.3211 9.26473 20.3949 9.26473C20.57 9.99304 20.6807 10.7397 20.6807 11.5141Z" fill="white"/>
<path id="Vector_8" d="M14.6809 16.5023C14.4504 17.7746 14.1554 19.0283 13.7405 20.2452C13.7221 20.319 13.7221 20.3743 13.7129 20.4481C12.9938 20.6232 12.2378 20.7338 11.4634 20.7338C10.6799 20.7338 9.93315 20.6232 9.20485 20.4481C9.19565 20.3743 9.20485 20.319 9.18645 20.2452C8.78079 19.0191 8.47656 17.7746 8.24609 16.5023C9.31551 16.6222 10.3848 16.7052 11.4634 16.7052C12.5421 16.7052 13.6207 16.6222 14.6809 16.5023Z" fill="white"/>
<path id="Vector_9" d="M14.9265 14.9837C12.6207 15.2746 10.2935 15.2746 7.98772 14.9837C7.6968 12.678 7.6968 10.3507 7.98772 8.04497C10.2935 7.75405 12.6207 7.75405 14.9265 8.04497C15.2174 10.3507 15.2174 12.678 14.9265 14.9837Z" fill="white"/>
</g>
</svg>
