<svg width="471" height="482" viewBox="0 0 471 482" fill="none" xmlns="http://www.w3.org/2000/svg">
<path d="M134.157 404.509C132.769 405.846 130.684 405.846 129.299 404.509C127.963 403.121 127.963 401.036 129.299 399.648C130.471 398.51 132.147 398.335 133.47 399.122L178.606 353.969H366.891L388.516 332.334H433.178C433.562 330.846 434.902 329.747 436.5 329.747C438.386 329.747 439.936 331.296 439.936 333.186C439.936 335.072 438.386 336.622 436.5 336.622C434.902 336.622 433.552 335.522 433.178 334.034H389.227L367.605 355.67H179.317L134.683 400.321C135.47 401.661 135.295 403.348 134.157 404.509ZM89.9353 479.647C87.2863 482.296 82.9504 482.296 80.2911 479.647C77.6421 476.998 77.6421 472.662 80.2911 469.999C82.5278 467.762 85.9601 467.412 88.5713 468.948L172.133 385.351H269.562L293.547 409.347H404.344C405.107 406.409 407.78 404.235 410.941 404.235C414.686 404.235 417.761 407.296 417.761 411.058C417.761 414.806 414.7 417.881 410.941 417.881C407.78 417.881 405.107 415.707 404.344 412.769H292.138L268.153 388.773H173.545L90.9832 471.373C92.519 473.971 92.172 477.41 89.9353 479.647ZM183.317 376.363C181.43 376.363 179.881 374.814 179.881 372.928C179.881 371.041 181.43 369.492 183.317 369.492C184.914 369.492 186.265 370.591 186.639 372.079H312.313L329.602 389.375H463.832C464.206 387.887 465.556 386.788 467.157 386.788C469.044 386.788 470.59 388.337 470.59 390.223C470.59 392.113 469.044 393.663 467.157 393.663C465.556 393.663 464.206 392.563 463.832 391.075H328.901L311.612 373.776H186.639C186.265 375.254 184.914 376.363 183.317 376.363ZM-31.7054 451.415C-37.3401 451.415 -41.9234 446.814 -41.9234 441.19C-41.9234 435.565 -37.3263 430.968 -31.7054 430.968C-26.9571 430.968 -22.9475 434.243 -21.8103 438.641H72.2823L93.0207 417.895V322.535L128.124 287.418H254.06L271.623 304.988H315.223C316.361 300.59 320.37 297.316 325.119 297.316C330.739 297.316 335.337 301.917 335.337 307.538C335.337 313.162 330.739 317.763 325.119 317.763C320.37 317.763 316.361 314.488 315.223 310.087H269.5L251.936 292.516H130.234L98.1297 324.638V419.994L74.3953 443.739H-21.824C-22.9475 448.14 -26.9571 451.415 -31.7054 451.415ZM-31.7054 427.969C-33.5916 427.969 -35.1411 426.419 -35.1411 424.53C-35.1411 422.643 -33.5916 421.094 -31.7054 421.094C-30.1043 421.094 -28.7574 422.193 -28.3829 423.681H52.8563L67.4344 409.096V335.46L143.963 258.897H254.946L283.116 287.081H352.464C352.838 285.593 354.185 284.494 355.786 284.494C357.673 284.494 359.222 286.043 359.222 287.93C359.222 289.816 357.673 291.365 355.786 291.365C354.185 291.365 352.838 290.266 352.464 288.778H282.419L254.249 260.598H144.688L69.1591 336.158V409.797L53.5675 425.382H-28.3829C-28.7574 426.87 -30.1043 427.969 -31.7054 427.969ZM-31.7054 409.045C-33.5916 409.045 -35.1411 407.495 -35.1411 405.609C-35.1411 403.723 -33.5916 402.173 -31.7054 402.173C-30.1043 402.173 -28.7574 403.272 -28.3829 404.76H33.956L44.2496 394.46V360.717L27.2597 343.72L131.333 239.602V198.183L191.075 138.418C190.284 137.095 190.46 135.408 191.597 134.243C192.985 132.907 195.07 132.907 196.459 134.243C197.795 135.631 197.795 137.72 196.459 139.105C195.284 140.242 193.61 140.417 192.284 139.631L133.044 198.895V240.313L29.6716 343.734L45.9607 360.03V395.185L34.6672 406.485H-28.3692C-28.7574 407.945 -30.1043 409.045 -31.7054 409.045ZM-31.7054 387.062C-33.5916 387.062 -35.1411 385.513 -35.1411 383.627C-35.1411 381.737 -33.5916 380.187 -31.7054 380.187C-30.1043 380.187 -28.7574 381.29 -28.3829 382.775H-13.3651L7.63443 359.016V323.961L94.1304 237.427V137.782L61.8649 105.5V6.77897C60.3772 6.40447 59.2778 5.0542 59.2778 3.45656C59.2778 1.56687 60.8273 0.017334 62.7136 0.017334C64.5998 0.017334 66.1494 1.56687 66.1494 3.45656C66.1494 5.0542 65.0499 6.40447 63.5622 6.77897V104.788L95.8311 137.068V238.128L9.33173 324.662V359.655L-12.6024 384.475H-28.3829C-28.7574 385.963 -30.1043 387.062 -31.7054 387.062ZM-29.2797 308.589C-30.6678 309.926 -32.7533 309.926 -34.1413 308.589C-35.4778 307.201 -35.4778 305.115 -34.1413 303.727C-32.9663 302.59 -31.2931 302.415 -29.9668 303.202L45.5346 227.666V95.7522C44.0504 95.3777 42.9509 94.0274 42.9509 92.4263C42.9509 90.5401 44.5005 88.9905 46.3867 88.9905C48.2729 88.9905 49.8225 90.5401 49.8225 92.4263C49.8225 94.0274 48.7231 95.3777 47.2354 95.7522V228.377L-28.7678 304.415C-27.9706 305.741 -28.1459 307.414 -29.2797 308.589ZM-29.2797 219.104C-30.6678 220.44 -32.7533 220.44 -34.1413 219.104C-35.4778 217.716 -35.4778 215.63 -34.1413 214.242C-32.9663 213.105 -31.2931 212.93 -29.9668 213.717L10.7816 172.951V64.5552C9.29391 64.1704 8.19791 62.8304 8.19791 61.2328C8.19791 59.3465 9.74402 57.797 11.6302 57.797C13.5165 57.797 15.066 59.3465 15.066 61.2328C15.066 62.8304 13.9666 64.1807 12.4823 64.5552V173.662L-28.7678 214.929C-27.9706 216.256 -28.1459 217.929 -29.2797 219.104ZM-26.8815 342.17C-29.5305 344.819 -33.8665 344.819 -36.5258 342.17C-39.1747 339.521 -39.1747 335.185 -36.5258 332.523C-34.2891 330.286 -30.8567 329.936 -28.2455 331.471L66.4105 236.778V158.342C63.4763 157.579 61.3015 154.903 61.3015 151.742C61.3015 147.993 64.3628 144.918 68.1215 144.918C71.87 144.918 74.945 147.98 74.945 151.742C74.945 154.903 72.7701 157.579 69.8325 158.342V238.19L-25.8199 333.883C-24.2978 336.498 -24.6448 339.934 -26.8815 342.17ZM-31.7054 464.825C-33.5916 464.825 -35.1411 463.275 -35.1411 461.385C-35.1411 459.499 -33.5916 457.95 -31.7054 457.95C-30.1043 457.95 -28.7574 459.049 -28.3829 460.537H86.3003L117.741 429.079V382.29L175.871 324.136H301.57C301.944 322.648 303.294 321.549 304.892 321.549C306.778 321.549 308.328 323.098 308.328 324.985C308.328 326.874 306.778 328.424 304.892 328.424C303.294 328.424 301.944 327.324 301.57 325.837H176.582L119.456 382.988V429.78L87.0115 462.238H-28.3692C-28.7574 463.711 -30.1043 464.825 -31.7054 464.825Z" fill="#275762" fill-opacity="0.6"/>
</svg>
