<svg width="25" height="26" viewBox="0 0 25 26" fill="none" xmlns="http://www.w3.org/2000/svg">
<g id="header_icon_3.svg" clip-path="url(#clip0_1547_2958)">
<path id="Vector" d="M7.69141 20.696V7.89314C7.69141 7.38909 7.84262 6.89764 8.11985 6.48179L11.56 1.36568C12.1019 0.5466 13.4502 -0.0330584 14.5969 0.395385C15.8318 0.811226 16.6509 2.19736 16.3863 3.43229L15.731 7.55291C15.6806 7.93094 15.7814 8.27118 15.9956 8.53581C16.2098 8.77523 16.5248 8.92644 16.8652 8.92644H22.0443C23.0397 8.92644 23.8967 9.32968 24.4006 10.0354C24.8795 10.7158 24.9678 11.5979 24.6527 12.4926L21.5528 21.931C21.1621 23.4935 19.461 24.7662 17.7725 24.7662H12.8579C12.0136 24.7662 10.8292 24.4764 10.2873 23.9345L8.6743 22.687C8.05684 22.2208 7.69141 21.4774 7.69141 20.696Z" fill="white"/>
<path id="Vector_2" d="M3.68954 5.43494H2.39161C0.438411 5.43494 -0.355469 6.19102 -0.355469 8.056V20.7328C-0.355469 22.5978 0.438411 23.354 2.39161 23.354H3.68954C5.64274 23.354 6.43661 22.5978 6.43661 20.7328V8.056C6.43661 6.19102 5.64274 5.43494 3.68954 5.43494Z" fill="#5D6088"/>
</g>
<defs>
<clipPath id="clip0_1547_2958">
<rect width="26.1364" height="25" fill="white" transform="translate(-0.566406 0.0350342)"/>
</clipPath>
</defs>
</svg>
