<svg width="20" height="20" viewBox="0 0 20 20" fill="none" xmlns="http://www.w3.org/2000/svg">
<g id="Clip path group">
<mask id="mask0_1618_246" style="mask-type:luminance" maskUnits="userSpaceOnUse" x="0" y="0" width="20" height="20">
<g id="cds-react-aria-135_0">
<path id="Vector" d="M0 0H20V20H0V0Z" fill="white"/>
</g>
</mask>
<g mask="url(#mask0_1618_246)">
<g id="Group">
<path id="Vector_2" fill-rule="evenodd" clip-rule="evenodd" d="M10 1.5C8.88376 1.5 7.77846 1.71986 6.74719 2.14702C5.71592 2.57419 4.77889 3.20029 3.98959 3.98959C3.20029 4.77889 2.57419 5.71592 2.14702 6.74719C1.71986 7.77846 1.5 8.88376 1.5 10C1.5 11.1162 1.71986 12.2215 2.14702 13.2528C2.57419 14.2841 3.20029 15.2211 3.98959 16.0104C4.77889 16.7997 5.71592 17.4258 6.74719 17.853C7.77846 18.2801 8.88376 18.5 10 18.5C12.2543 18.5 14.4163 17.6045 16.0104 16.0104C17.6045 14.4163 18.5 12.2543 18.5 10C18.5 7.74566 17.6045 5.58365 16.0104 3.98959C14.4163 2.39553 12.2543 1.5 10 1.5ZM0.5 10C0.5 8.75244 0.745725 7.5171 1.22314 6.36451C1.70056 5.21191 2.40033 4.16464 3.28249 3.28249C4.16464 2.40033 5.21191 1.70056 6.36451 1.22314C7.5171 0.745725 8.75244 0.5 10 0.5C11.2476 0.5 12.4829 0.745725 13.6355 1.22314C14.7881 1.70056 15.8354 2.40033 16.7175 3.28249C17.5997 4.16464 18.2994 5.21191 18.7769 6.36451C19.2543 7.5171 19.5 8.75244 19.5 10C19.5 12.5196 18.4991 14.9359 16.7175 16.7175C14.9359 18.4991 12.5196 19.5 10 19.5C7.48044 19.5 5.06408 18.4991 3.28249 16.7175C1.50089 14.9359 0.5 12.5196 0.5 10Z" fill="white"/>
<path id="Vector_3" d="M9.99969 15.78C10.2304 15.78 10.4517 15.6883 10.6149 15.5251C10.778 15.362 10.8697 15.1407 10.8697 14.91C10.8697 14.6792 10.778 14.4579 10.6149 14.2948C10.4517 14.1316 10.2304 14.04 9.99969 14.04C9.76895 14.04 9.54766 14.1316 9.3845 14.2948C9.22135 14.4579 9.12969 14.6792 9.12969 14.91C9.12969 15.1407 9.22135 15.362 9.3845 15.5251C9.54766 15.6883 9.76895 15.78 9.99969 15.78ZM9.99969 4.37996C9.13674 4.36388 8.30263 4.69067 7.68026 5.28866C7.0579 5.88666 6.69807 6.70706 6.67969 7.56996V7.78996H7.67969V7.56996C7.67969 6.95466 7.92412 6.36456 8.3592 5.92947C8.79428 5.49439 9.38439 5.24996 9.99969 5.24996C10.615 5.24996 11.2051 5.49439 11.6402 5.92947C12.0753 6.36456 12.3197 6.95466 12.3197 7.56996C12.3205 7.86584 12.2606 8.15873 12.1436 8.4305C12.0266 8.70227 11.8551 8.94715 11.6397 9.14996L10.5597 10.15C10.246 10.4372 9.99518 10.7863 9.82307 11.1753C9.65097 11.5642 9.56129 11.9846 9.55969 12.41V12.63H10.5597V12.41C10.5601 12.1158 10.6207 11.8247 10.7376 11.5548C10.8545 11.2848 11.0254 11.0415 11.2397 10.84L12.3197 9.83996C12.6324 9.55196 12.8826 9.20271 13.0546 8.81392C13.2267 8.42513 13.3169 8.0051 13.3197 7.57996C13.3119 7.15183 13.2198 6.72943 13.0487 6.33689C12.8776 5.94435 12.6309 5.58936 12.3226 5.2922C12.0143 4.99504 11.6505 4.76153 11.2519 4.605C10.8533 4.44848 10.4278 4.37201 9.99969 4.37996Z" fill="white"/>
</g>
</g>
</g>
</svg>
