<svg width="513" height="482" viewBox="0 0 513 482" fill="none" xmlns="http://www.w3.org/2000/svg">
<path d="M336.409 404.509C337.797 405.846 339.883 405.846 341.267 404.509C342.604 403.121 342.604 401.036 341.267 399.648C340.096 398.511 338.419 398.335 337.096 399.122L291.96 353.969H103.676L82.0507 332.334H37.3889C37.0041 330.846 35.6641 329.747 34.0665 329.747C32.1802 329.747 30.6307 331.296 30.6307 333.186C30.6307 335.072 32.1802 336.622 34.0665 336.622C35.6641 336.622 37.0144 335.522 37.3889 334.035H81.3395L102.961 355.67H291.249L335.883 400.321C335.097 401.661 335.272 403.348 336.409 404.509ZM380.631 479.647C383.28 482.296 387.616 482.296 390.275 479.647C392.924 476.998 392.924 472.662 390.275 469.999C388.039 467.762 384.606 467.412 381.995 468.948L298.433 385.351H201.005L177.019 409.347H66.222C65.4593 406.409 62.7862 404.235 59.6253 404.235C55.8803 404.235 52.8053 407.296 52.8053 411.058C52.8053 414.807 55.8665 417.882 59.6253 417.882C62.7862 417.882 65.4593 415.707 66.222 412.769H178.428L202.413 388.774H297.021L379.583 471.373C378.047 473.971 378.394 477.41 380.631 479.647ZM287.25 376.363C289.136 376.363 290.686 374.814 290.686 372.928C290.686 371.041 289.136 369.492 287.25 369.492C285.652 369.492 284.302 370.591 283.927 372.079H158.253L140.964 389.375H6.73476C6.36026 387.887 5.00999 386.788 3.40892 386.788C1.52267 386.788 -0.0234375 388.337 -0.0234375 390.223C-0.0234375 392.113 1.52267 393.663 3.40892 393.663C5.00999 393.663 6.36026 392.563 6.73476 391.076H141.665L158.954 373.776H283.927C284.302 375.254 285.652 376.363 287.25 376.363ZM502.272 451.415C507.906 451.415 512.49 446.814 512.49 441.19C512.49 435.566 507.893 430.968 502.272 430.968C497.523 430.968 493.514 434.243 492.377 438.641H398.284L377.546 417.895V322.535L342.442 287.418H216.507L198.943 304.988H155.343C154.206 300.591 150.196 297.316 145.448 297.316C139.827 297.316 135.23 301.917 135.23 307.538C135.23 313.162 139.827 317.763 145.448 317.763C150.196 317.763 154.206 314.488 155.343 310.087H201.066L218.63 292.516H340.333L372.437 324.638V419.995L396.171 443.739H492.39C493.514 448.141 497.523 451.415 502.272 451.415ZM502.272 427.969C504.158 427.969 505.708 426.419 505.708 424.53C505.708 422.644 504.158 421.094 502.272 421.094C500.671 421.094 499.324 422.193 498.949 423.681H417.71L403.132 409.096V335.46L326.603 258.897H215.62L187.45 287.081H118.102C117.728 285.593 116.381 284.494 114.78 284.494C112.894 284.494 111.344 286.043 111.344 287.93C111.344 289.816 112.894 291.365 114.78 291.365C116.381 291.365 117.728 290.266 118.102 288.778H188.148L216.318 260.598H325.878L401.407 336.158V409.797L416.999 425.382H498.949C499.324 426.87 500.671 427.969 502.272 427.969ZM502.272 409.045C504.158 409.045 505.708 407.495 505.708 405.609C505.708 403.723 504.158 402.173 502.272 402.173C500.671 402.173 499.324 403.273 498.949 404.76H436.61L426.317 394.46V360.717L443.307 343.72L339.233 239.602V198.183L279.492 138.418C280.282 137.095 280.107 135.408 278.97 134.243C277.581 132.907 275.496 132.907 274.108 134.243C272.771 135.631 272.771 137.72 274.108 139.105C275.283 140.242 276.956 140.417 278.282 139.631L337.522 198.895V240.313L440.895 343.734L424.606 360.03V395.185L435.899 406.485H498.936C499.324 407.945 500.671 409.045 502.272 409.045ZM502.272 387.062C504.158 387.062 505.708 385.513 505.708 383.627C505.708 381.737 504.158 380.188 502.272 380.188C500.671 380.188 499.324 381.29 498.949 382.775H483.932L462.932 359.016V323.961L376.436 237.427V137.782L408.701 105.5V6.77903C410.189 6.40453 411.289 5.05426 411.289 3.45662C411.289 1.56694 409.739 0.017395 407.853 0.017395C405.967 0.017395 404.417 1.56694 404.417 3.45662C404.417 5.05426 405.517 6.40453 407.004 6.77903V104.788L374.735 137.068V238.128L461.235 324.662V359.655L483.169 384.475H498.949C499.324 385.963 500.671 387.062 502.272 387.062ZM499.846 308.589C501.234 309.926 503.32 309.926 504.708 308.589C506.044 307.201 506.044 305.115 504.708 303.727C503.533 302.59 501.859 302.415 500.533 303.202L425.032 227.666V95.7522C426.516 95.3777 427.616 94.0275 427.616 92.4264C427.616 90.5401 426.066 88.9906 424.18 88.9906C422.293 88.9906 420.744 90.5401 420.744 92.4264C420.744 94.0275 421.843 95.3777 423.331 95.7522V228.377L499.334 304.415C498.537 305.741 498.712 307.414 499.846 308.589ZM499.846 219.104C501.234 220.44 503.32 220.44 504.708 219.104C506.044 217.716 506.044 215.63 504.708 214.242C503.533 213.105 501.859 212.93 500.533 213.717L459.785 172.951V64.5553C461.272 64.1705 462.368 62.8305 462.368 61.2329C462.368 59.3466 460.822 57.7971 458.936 57.7971C457.05 57.7971 455.5 59.3466 455.5 61.2329C455.5 62.8305 456.6 64.1808 458.084 64.5553V173.662L499.334 214.929C498.537 216.256 498.712 217.929 499.846 219.104ZM497.448 342.17C500.097 344.819 504.433 344.819 507.092 342.17C509.741 339.521 509.741 335.186 507.092 332.523C504.855 330.286 501.423 329.936 498.812 331.471L404.156 236.778V158.342C407.09 157.579 409.265 154.903 409.265 151.742C409.265 147.993 406.204 144.918 402.445 144.918C398.696 144.918 395.621 147.98 395.621 151.742C395.621 154.903 397.796 157.579 400.734 158.342V238.19L496.386 333.883C494.864 336.498 495.211 339.934 497.448 342.17ZM502.272 464.825C504.158 464.825 505.708 463.275 505.708 461.385C505.708 459.499 504.158 457.95 502.272 457.95C500.671 457.95 499.324 459.049 498.949 460.537H384.266L352.825 429.079V382.29L294.695 324.136H168.997C168.622 322.648 167.272 321.549 165.674 321.549C163.788 321.549 162.239 323.098 162.239 324.985C162.239 326.874 163.788 328.424 165.674 328.424C167.272 328.424 168.622 327.324 168.997 325.837H293.984L351.111 382.988V429.78L383.555 462.238H498.936C499.324 463.712 500.671 464.825 502.272 464.825Z" fill="#275762" fill-opacity="0.6"/>
</svg>
