<svg width="23" height="21" viewBox="0 0 23 21" fill="none" xmlns="http://www.w3.org/2000/svg">
<g id="Layer_1" clip-path="url(#clip0_34_68)">
<path id="Vector" d="M22.5 3.33989V3.34355C22.4993 3.98163 22.4993 4.62044 22.4993 5.25852V8.05305C22.4993 8.35526 22.4303 8.60332 22.3142 8.77528C22.2565 8.86089 22.1869 8.92822 22.1074 8.97358C22.0285 9.01822 21.9392 9.04237 21.8421 9.0431H21.8393C21.7415 9.0431 21.6528 9.01895 21.574 8.97431C21.4551 8.90699 21.3573 8.79065 21.2883 8.63479C21.22 8.47746 21.1813 8.28209 21.1813 8.05671C21.1806 7.5401 21.1806 7.02349 21.1806 6.50761V3.34648C21.1799 3.13501 21.1574 2.94695 21.1117 2.7845C21.0434 2.54083 20.9217 2.3535 20.7486 2.22838C20.5762 2.10325 20.3538 2.04105 20.0857 2.04105H2.91708C2.73835 2.04105 2.57932 2.06886 2.44211 2.12374C2.23734 2.20569 2.07831 2.35424 1.97558 2.55839C1.87144 2.76401 1.82077 3.02598 1.82077 3.34428C1.82007 5.46195 1.82007 7.57888 1.82007 9.69654C1.82007 11.8142 1.82007 13.9868 1.82077 16.1322C1.82077 16.3422 1.84399 16.5281 1.89114 16.6891C1.9601 16.9313 2.08465 17.1186 2.25845 17.2423H2.25916C2.43366 17.3674 2.65813 17.4296 2.92763 17.4296C4.68398 17.4303 6.43961 17.4303 8.19595 17.4303H12.9429C12.9886 17.4303 13.0336 17.4296 13.0787 17.4296C13.1237 17.4296 13.1715 17.4303 13.2166 17.434C13.3897 17.4479 13.5424 17.5379 13.6522 17.6755C13.7612 17.813 13.8281 17.9974 13.8281 18.2023V18.2104C13.8274 18.3135 13.8098 18.4116 13.7781 18.5001C13.7464 18.5894 13.7007 18.6692 13.6451 18.7372H13.6444C13.5881 18.8053 13.5213 18.8609 13.4467 18.9004C13.3728 18.9399 13.2898 18.9633 13.2025 18.9677C13.1399 18.9707 13.078 18.9714 13.0153 18.9714C12.933 18.9714 12.85 18.9699 12.7655 18.9699H12.7529C10.891 18.9699 9.02839 18.9611 7.16509 18.9611C5.74721 18.9611 4.33003 18.9663 2.91215 18.9846H2.88612C2.29082 18.9846 1.69482 18.7197 1.24729 18.2301C0.799056 17.7406 0.5 17.0271 0.5 16.1278V16.1227C0.502111 14.5107 0.502815 12.8979 0.502815 11.2852C0.502815 9.49678 0.502111 7.7084 0.502111 5.91929C0.502111 5.05803 0.502111 4.19677 0.502815 3.33477C0.502815 2.6162 0.687878 1.9869 1.01367 1.50176C1.17692 1.25955 1.37465 1.0532 1.60334 0.889287C1.83274 0.72684 2.09168 0.606834 2.37667 0.536587C2.50333 0.505122 2.6321 0.5 2.76227 0.5C2.82912 0.5 2.89597 0.501463 2.96423 0.501463H2.96634C4.70509 0.5 6.44313 0.5 8.18188 0.5H11.4687V0.501463H11.5039C13.1596 0.501463 14.8146 0.5 16.4696 0.5C17.7221 0.5 18.9747 0.500732 20.2265 0.503659C20.7676 0.50439 21.258 0.719523 21.6458 1.09125C22.0321 1.46151 22.3135 1.99056 22.4317 2.61766C22.4768 2.85475 22.5 3.09549 22.5 3.33989Z" fill="white"/>
<path id="Vector_2" d="M20.3582 9.7405C19.5856 8.93777 18.5209 8.44385 17.3535 8.44385C17.1206 8.44385 16.8835 8.4636 16.6443 8.50458C15.7696 8.65386 15.0399 8.99997 14.465 9.52829C13.8894 10.0566 13.4686 10.7671 13.216 11.6467C13.083 12.1113 13.0176 12.5592 13.0176 12.9894C13.0176 13.5953 13.1463 14.1668 13.3926 14.7039C13.6396 15.241 14.0055 15.743 14.4805 16.2076C14.5635 16.2881 14.6247 16.3686 14.6649 16.4579H14.6656C14.705 16.5464 14.724 16.6438 14.7247 16.7564V16.7711L14.724 16.774C14.7197 17.1487 14.7176 17.5248 14.7176 17.9002C14.7176 18.2755 14.7197 18.6824 14.7226 19.0731C14.7261 19.5327 14.8816 19.8883 15.1194 20.1298C15.3573 20.372 15.6774 20.5 16.011 20.5C16.0447 20.5 16.0785 20.4986 16.1116 20.4964H16.1123C16.2657 20.4839 16.4184 20.4803 16.5725 20.4803C16.7885 20.4803 17.0038 20.4876 17.2191 20.4898H17.2902V20.4891H17.3254C17.5942 20.4891 17.863 20.4883 18.1325 20.4883C18.3197 20.4883 18.5076 20.4891 18.6954 20.4898H18.7018C18.9459 20.4905 19.1634 20.4115 19.3632 20.2644C19.5581 20.1203 19.6946 19.9476 19.7833 19.75C19.872 19.5532 19.9135 19.3315 19.9149 19.09C19.9184 18.7168 19.9198 18.3429 19.9198 17.9704C19.9198 17.5497 19.9177 17.1289 19.9149 16.7082V16.7023C19.9149 16.6108 19.9282 16.5311 19.9606 16.4586C19.9923 16.3847 20.0422 16.3203 20.1112 16.2574C20.551 15.8579 20.9007 15.4071 21.1512 14.9051C21.401 14.4032 21.553 13.8492 21.598 13.2448C21.6065 13.1255 21.6107 13.0077 21.6107 12.8899C21.6107 11.6547 21.1308 10.5432 20.3582 9.7405ZM16.2305 17.4553V17.4487C16.2305 17.4136 16.234 17.3828 16.2425 17.355C16.2495 17.3287 16.2622 17.3038 16.2805 17.2862C16.2931 17.2738 16.3079 17.2635 16.322 17.2577H16.3227C16.3438 17.2482 16.3663 17.2445 16.3895 17.2445C16.4156 17.2445 16.4416 17.2482 16.4712 17.2555C16.7526 17.3257 17.0348 17.3601 17.317 17.3601C17.5991 17.3601 17.8897 17.3243 18.1761 17.2548C18.2022 17.2489 18.2268 17.2453 18.2493 17.2453C18.2789 17.2453 18.307 17.2518 18.3302 17.265C18.3513 17.2767 18.3724 17.3009 18.383 17.3221C18.3907 17.3396 18.3971 17.3565 18.4006 17.3755C18.4062 17.4026 18.4083 17.4297 18.4083 17.4589V17.464C18.4062 17.6923 18.4055 17.9207 18.4055 18.149C18.4055 18.3304 18.4055 18.5126 18.4069 18.6948V18.6992C18.4069 18.7483 18.4006 18.7892 18.3865 18.8258H18.3858C18.3732 18.8602 18.3485 18.8924 18.3211 18.9114C18.3014 18.9253 18.2789 18.9356 18.2556 18.9429C18.2233 18.9524 18.1888 18.9561 18.1501 18.9561H18.1416C18.0262 18.9546 17.9108 18.9539 17.7954 18.9539C17.6308 18.9539 17.4661 18.9546 17.3008 18.9546H17.2586C17.1185 18.9546 16.9785 18.9539 16.8392 18.9539C16.7308 18.9539 16.621 18.9546 16.5127 18.9568H16.4972C16.4529 18.9568 16.4127 18.9524 16.3755 18.94C16.3403 18.929 16.3086 18.9092 16.2847 18.8807C16.2692 18.8609 16.2565 18.8383 16.2474 18.8126H16.2481C16.2361 18.7775 16.2305 18.7387 16.2305 18.6926V18.6846C16.2333 18.4929 16.234 18.3004 16.234 18.1102C16.234 17.8914 16.2326 17.6733 16.2305 17.4553ZM14.5438 13.2894C14.5305 13.1665 14.5241 13.0443 14.5241 12.9236C14.5241 12.137 14.8063 11.4213 15.2834 10.893C15.7597 10.3647 16.4289 10.0244 17.2023 9.98563C17.2466 9.98344 17.2909 9.9827 17.336 9.9827C18.0305 9.9827 18.7039 10.2498 19.2147 10.732C19.7256 11.2135 20.0739 11.9101 20.1196 12.7663C20.1225 12.8219 20.1239 12.876 20.1239 12.9302C20.1239 13.7358 19.8058 14.4493 19.3132 14.9615C18.8228 15.4722 18.1585 15.7862 17.4612 15.7971H17.457C17.3887 15.803 17.3212 15.8066 17.2536 15.8066C16.5936 15.8059 15.954 15.5169 15.4614 15.0581C14.9674 14.6 14.6191 13.9714 14.5438 13.2894Z" fill="white"/>
<path id="Vector_3" d="M16.2311 5.44801C16.2311 5.46923 16.2304 5.48972 16.229 5.51094C16.2149 5.69973 16.1368 5.86803 16.0129 5.99096C15.8905 6.11316 15.7244 6.19365 15.5345 6.20536C15.4803 6.20902 15.4254 6.20975 15.3705 6.20975H8.16148C7.14399 6.20975 6.12649 6.20975 5.109 6.20829H5.03511C4.92815 6.20829 4.82331 6.20463 4.7255 6.18048C4.5721 6.14316 4.43981 6.05096 4.34271 5.92657C4.2456 5.80217 4.18579 5.64558 4.17524 5.47947C4.17453 5.4685 4.17383 5.45606 4.17383 5.44215C4.17383 5.30093 4.22238 5.15238 4.30541 5.02433C4.38915 4.89701 4.50455 4.79163 4.63684 4.73456C4.74661 4.68626 4.86131 4.6687 4.98304 4.6687C8.46758 4.66943 11.9521 4.66943 15.4366 4.67016C15.5133 4.67016 15.59 4.67529 15.6625 4.69358C16.0031 4.77846 16.2311 5.08872 16.2311 5.44801Z" fill="white"/>
<path id="Vector_4" d="M10.9978 9.71413V9.7156C10.9971 9.77413 10.99 9.8356 10.9739 9.90073C10.9345 10.0544 10.8697 10.1803 10.7775 10.2768C10.6868 10.3734 10.5671 10.4429 10.418 10.4788C10.3026 10.5073 10.1808 10.5198 10.0612 10.5198C9.24004 10.5212 8.41957 10.522 7.59839 10.522C6.77722 10.522 5.94057 10.5212 5.11095 10.5198C4.99203 10.5198 4.8703 10.5059 4.7549 10.4781C4.59024 10.4393 4.44739 10.3398 4.34396 10.2095H4.34325C4.24052 10.0771 4.1786 9.9139 4.17578 9.74413V9.7295C4.17578 9.57217 4.23207 9.41485 4.32707 9.2846C4.42206 9.15215 4.55576 9.04751 4.70916 8.99556C4.84215 8.95019 4.97936 8.94653 5.12221 8.94653H5.19328C5.59296 8.94726 5.99193 8.94727 6.39091 8.94727H10.1281C10.2449 8.94727 10.3553 8.9597 10.4581 8.9919C10.5636 9.02556 10.6607 9.08117 10.7473 9.16825C10.8254 9.24947 10.888 9.33363 10.9316 9.42436C10.9739 9.5151 10.9971 9.61096 10.9978 9.71413Z" fill="white"/>
</g>
<defs>
<clipPath id="clip0_34_68">
<rect width="22" height="20" fill="white" transform="translate(0.5 0.5)"/>
</clipPath>
</defs>
</svg>
