<svg width="17" height="16" viewBox="0 0 17 16" fill="none" xmlns="http://www.w3.org/2000/svg">
<path id="Vector" d="M1.5 14.8189H15.5M1.5 14.8189V11.3189L8.5 4.31895M1.5 14.8189L5 14.8189L12 7.81894M8.5 4.31895L11.01 1.80888L11.0116 1.80739C11.3571 1.46187 11.5302 1.2888 11.7297 1.22398C11.9054 1.16688 12.0947 1.16688 12.2704 1.22398C12.4698 1.28875 12.6427 1.46162 12.9877 1.80666L14.51 3.32898C14.8565 3.67549 15.0299 3.84883 15.0948 4.04862C15.1519 4.22436 15.1519 4.41366 15.0948 4.5894C15.0299 4.78904 14.8568 4.96212 14.5108 5.30813L14.5101 5.30888L12 7.81894M8.5 4.31895L12 7.81894" stroke="#141F25" stroke-width="1.3" stroke-linecap="round" stroke-linejoin="round"/>
</svg>
