<svg width="20" height="19" viewBox="0 0 20 19" fill="none" xmlns="http://www.w3.org/2000/svg">
<path id="Vector" d="M10 13.296V7.14801M10 7.14801L7 9.19734M10 7.14801L13 9.19734M1 3.04934V14.1157C1 15.2635 1 15.837 1.21799 16.2753C1.40973 16.6609 1.71547 16.9751 2.0918 17.1715C2.5192 17.3947 3.07899 17.3947 4.19691 17.3947H15.8031C16.921 17.3947 17.48 17.3947 17.9074 17.1715C18.2837 16.9751 18.5905 16.6611 18.7822 16.2755C19.0002 15.8372 19.0002 15.2633 19.0002 14.1155L19.0002 6.32805C19.0002 5.18031 19.0002 4.60644 18.7822 4.16807C18.5905 3.78246 18.2839 3.46918 17.9076 3.2727C17.4798 3.04934 16.9201 3.04934 15.8 3.04934H10M1 3.04934H10M1 3.04934C1 1.91752 1.89543 1 3 1H6.67452C7.1637 1 7.40886 1 7.63904 1.05662C7.84311 1.10683 8.03785 1.18983 8.2168 1.3022C8.41857 1.42889 8.59181 1.60641 8.9375 1.96063L10 3.04934" stroke="white" stroke-width="1.5" stroke-linecap="round" stroke-linejoin="round"/>
</svg>
