<svg width="20" height="20" viewBox="0 0 20 20" fill="none" xmlns="http://www.w3.org/2000/svg">
<g id="Layer_1" clip-path="url(#clip0_390_81)">
<path id="Vector" d="M19.9979 3.71017C19.9963 2.80331 19.6449 1.94929 19.0666 1.28957C18.4878 0.629837 17.6842 0.168668 16.7834 0.0427008C16.588 0.0154791 16.3878 0.00854017 16.1801 0.00854017H16.0834C13.7318 0.00854017 11.3792 0.0144115 9.02659 0.0144115C7.28855 0.0144115 5.55051 0.011209 3.81247 0H3.78844C2.92663 0 2.0707 0.305845 1.39043 0.85028C0.709633 1.39525 0.204507 2.17401 0.0315036 3.12677C0.0213584 3.18228 0.0101452 3.23405 0 3.28316V10.6699C0.0603375 11.0254 0.15378 11.3627 0.28994 11.6781C0.427702 11.9989 0.608714 12.2978 0.843123 12.5722C1.22544 13.0189 1.65207 13.3584 2.12676 13.5885C2.60199 13.818 3.12687 13.9392 3.71476 13.9402C5.7924 13.9429 7.87003 13.944 9.94767 13.944C12.0253 13.944 14.1692 13.9429 16.2799 13.9413C17.1967 13.9402 18.0543 13.5917 18.7153 13.0136C19.3763 12.4355 19.8377 11.6312 19.9642 10.7238C19.9872 10.5615 19.9989 10.4019 19.9989 10.2402V10.0667C19.9989 8.80438 20 7.54257 20 6.28076C20 5.42354 19.9995 4.56685 19.9979 3.71017ZM18.8466 10.1286C18.8434 10.8844 18.5524 11.5548 18.0671 12.0315C17.5822 12.5087 16.9046 12.791 16.1443 12.7921C15.3182 12.7942 14.4927 12.7948 13.6672 12.7948C12.4413 12.7948 11.2158 12.7937 9.99039 12.7937H6.58586C5.68293 12.7937 4.78001 12.7937 3.87655 12.7937C3.57273 12.7932 3.27531 12.7553 2.98964 12.6677C2.70451 12.5807 2.43165 12.4441 2.18016 12.2509C1.83896 11.9899 1.57678 11.676 1.40218 11.32C1.22704 10.964 1.14054 10.5674 1.1384 10.1457C1.13199 9.05204 1.12879 7.95837 1.12879 6.86469C1.12879 5.84734 1.13146 4.82946 1.13733 3.81212C1.14107 3.06859 1.42781 2.40299 1.9041 1.92687C2.37986 1.45023 3.04517 1.16253 3.79005 1.16146C5.86608 1.15666 7.94212 1.15399 10.0182 1.15399C12.0942 1.15399 14.1377 1.15666 16.1977 1.162C16.9425 1.16306 17.6068 1.45076 18.0815 1.92848C18.5572 2.40512 18.8429 3.07126 18.8466 3.81585C18.852 4.85775 18.8552 5.90019 18.8552 6.94209C18.8552 7.98399 18.852 9.06699 18.8466 10.1292V10.1286Z" fill="white"/>
<path id="Vector_2" d="M13.5957 17.5633C13.5311 17.0797 13.3159 16.6538 12.9939 16.3255C12.6714 15.9978 12.2416 15.7683 11.7444 15.684C11.6366 15.6653 11.5271 15.6567 11.4182 15.6567C11.0225 15.6562 10.6274 15.7747 10.2862 15.9887C9.94553 16.2022 9.65987 16.5102 9.47992 16.8865C9.44682 16.9559 9.40837 17.0194 9.35818 17.076C9.30852 17.1326 9.24551 17.1801 9.17717 17.2116C9.13178 17.2329 9.08533 17.2473 9.03887 17.2564C8.97747 17.2687 8.91713 17.2724 8.85572 17.2724H8.85305C6.13787 17.2666 3.42215 17.274 0.705361 17.2634H0.698953C0.55158 17.2634 0.432507 17.2836 0.337997 17.321C0.243486 17.3589 0.170333 17.4107 0.103054 17.4907C0.066211 17.5356 0.0315036 17.5895 0 17.6557V18.0304C0.0512601 18.1361 0.108928 18.2108 0.173003 18.2663C0.246155 18.3282 0.329987 18.3704 0.441585 18.3965C0.515271 18.4136 0.601773 18.4227 0.700021 18.4227H0.706429C3.42962 18.412 6.15122 18.419 8.87281 18.4131H8.87922C8.94703 18.4131 9.01324 18.4184 9.08105 18.436C9.1478 18.4531 9.21561 18.4835 9.27381 18.5278C9.31226 18.5572 9.34643 18.5914 9.37527 18.6277C9.41425 18.6762 9.44521 18.7291 9.47191 18.7851C9.63691 19.1267 9.85369 19.3872 10.1212 19.5863C10.3834 19.7811 10.6957 19.9177 11.0594 19.9999H11.7978C11.879 19.9786 11.9575 19.9578 12.0333 19.9364C12.5016 19.8025 12.8967 19.5174 13.1749 19.1454C13.4537 18.7734 13.6144 18.3159 13.6138 17.8414C13.6138 17.7496 13.608 17.6567 13.5957 17.5633ZM12.4487 17.8831C12.437 18.0859 12.3644 18.2727 12.2538 18.4275C12.1428 18.5817 11.9938 18.7056 11.8197 18.7824C11.7033 18.8331 11.5757 18.8625 11.4433 18.8625C11.4257 18.8625 11.4075 18.862 11.3899 18.8609C11.187 18.8486 11.0001 18.776 10.8453 18.6655C10.6909 18.5551 10.5671 18.4056 10.4907 18.2316C10.4394 18.1158 10.4106 17.9882 10.4106 17.8558C10.4106 17.8377 10.4111 17.8201 10.4122 17.8019C10.424 17.5996 10.4966 17.4123 10.6071 17.258C10.7182 17.1032 10.8671 16.9794 11.0412 16.9031C11.1576 16.8518 11.2852 16.8225 11.4177 16.8225C11.4353 16.8225 11.4534 16.823 11.4711 16.8241C11.674 16.8364 11.8608 16.9089 12.0157 17.0194C12.17 17.1305 12.2939 17.2794 12.3702 17.4539C12.4215 17.5697 12.4503 17.6973 12.4503 17.8302C12.4503 17.8478 12.4503 17.8654 12.4487 17.8831Z" fill="white"/>
<path id="Vector_3" d="M19.9987 17.8463V17.8511C19.9966 18.023 19.9351 18.1569 19.8348 18.2551C19.7333 18.3523 19.5891 18.4153 19.4033 18.4163C18.8763 18.4174 18.3488 18.4179 17.8217 18.4179C17.2947 18.4179 16.773 18.4174 16.2487 18.4163C16.0591 18.4153 15.9155 18.3518 15.8151 18.2541C15.7158 18.1548 15.6544 18.0182 15.6533 17.8393V17.8345C15.6539 17.7481 15.6704 17.6723 15.6982 17.605C15.7404 17.5052 15.8087 17.4246 15.9011 17.3659C15.9929 17.3072 16.1099 17.2704 16.2508 17.2688H17.8255V17.0286L17.826 17.2688H17.8495C18.1603 17.2688 18.471 17.2682 18.7813 17.2682C18.9884 17.2682 19.1956 17.2682 19.4023 17.2693C19.4973 17.2698 19.5811 17.2869 19.6532 17.3152C19.7616 17.3579 19.8449 17.4257 19.9042 17.5138C19.9629 17.6018 19.9982 17.7123 19.9987 17.8463Z" fill="white"/>
<path id="Vector_4" d="M16.7852 5.06161C16.7014 4.56628 16.4766 4.14194 16.153 3.82222C15.8295 3.5025 15.4071 3.28632 14.9207 3.2148C14.8187 3.19932 14.7172 3.19238 14.6163 3.19238C13.7967 3.19238 13.023 3.67757 12.646 4.47875C12.6209 4.53212 12.591 4.58283 12.5515 4.6298C12.512 4.67677 12.4612 4.7184 12.4052 4.74723C12.3673 4.76698 12.3283 4.78085 12.2893 4.78993C12.2375 4.80167 12.1873 4.80594 12.1382 4.80594H12.1168C11.9625 4.8022 11.8114 4.79687 11.6646 4.79687C11.5289 4.79687 11.3976 4.80114 11.271 4.81555C10.3574 4.91803 9.56077 5.18865 8.87089 5.62526C8.18102 6.06241 7.5958 6.6677 7.11256 7.45072C7.09174 7.48488 7.07358 7.51477 7.05383 7.5436C7.03407 7.57295 7.01431 7.60231 6.97747 7.637C6.95291 7.65996 6.91767 7.68664 6.86747 7.70373C6.83917 7.71387 6.8066 7.7192 6.77563 7.7192C6.74733 7.7192 6.7201 7.71493 6.69714 7.708C6.67418 7.70159 6.65442 7.69305 6.63787 7.68451C6.60477 7.66743 6.58181 7.64982 6.56151 7.63327C6.52147 7.60018 6.48996 7.56762 6.44938 7.52758C6.07454 7.15609 5.6682 6.8764 5.22662 6.68798C4.78503 6.5001 4.3066 6.40242 3.78172 6.40242C3.7657 6.40242 3.74968 6.40242 3.73366 6.40242C3.57668 6.40455 3.44319 6.4654 3.34441 6.56415C3.24616 6.66343 3.18529 6.799 3.18262 6.95486V6.96553C3.18262 7.1326 3.24082 7.27031 3.3348 7.37226C3.42877 7.47367 3.55906 7.53933 3.71978 7.55054C3.89919 7.56228 4.09195 7.57509 4.28952 7.61832C4.89716 7.75176 5.4087 8.06295 5.77072 8.50543C6.13381 8.94685 6.34633 9.51584 6.37837 10.1532C6.38584 10.301 6.42642 10.419 6.48569 10.5092C6.5455 10.5988 6.62345 10.6629 6.7233 10.7029C6.79005 10.7296 6.86694 10.7446 6.95558 10.7446H6.95931C7.09014 10.744 7.19533 10.7099 7.28076 10.6522C7.36566 10.5946 7.43294 10.5129 7.47726 10.403C7.50662 10.3293 7.52531 10.2434 7.52905 10.1457C7.54881 9.60338 7.64759 9.08723 7.83875 8.60578C8.02937 8.12433 8.3129 7.6781 8.69468 7.27778C9.13947 6.81021 9.6446 6.47394 10.1951 6.2583C10.7451 6.04213 11.3389 5.94552 11.9641 5.94552C11.9892 5.94552 12.0143 5.94552 12.0394 5.94605C12.1094 5.94712 12.1777 5.95192 12.2477 5.9674C12.3176 5.98342 12.3897 6.0117 12.4543 6.05654C12.497 6.08643 12.5355 6.12219 12.5691 6.16169C12.6134 6.21507 12.6492 6.27378 12.6802 6.33837C12.8633 6.71894 13.1463 7.02318 13.4854 7.23295C13.8244 7.44272 14.2196 7.55747 14.6248 7.55747C14.7861 7.55747 14.9495 7.53933 15.1113 7.50196C15.6089 7.38667 16.0302 7.11072 16.3292 6.73602C16.6272 6.36185 16.8029 5.89107 16.8071 5.3824C16.7997 5.2543 16.8002 5.14541 16.7852 5.06108V5.06161ZM15.4696 5.93911C15.3596 6.09817 15.2074 6.22734 15.0285 6.30848C14.9094 6.36239 14.7776 6.39441 14.6398 6.39708H14.6232C14.4177 6.39708 14.2249 6.32876 14.0653 6.2188C13.9061 6.10885 13.7769 5.95673 13.6963 5.77792C13.6424 5.65836 13.6103 5.52652 13.6076 5.38881V5.37279C13.6076 5.1673 13.676 4.97461 13.7855 4.81501C13.8955 4.65595 14.0471 4.52678 14.2265 4.44565C14.3461 4.39174 14.478 4.35972 14.6158 4.35705H14.6323C14.8379 4.35705 15.0307 4.42537 15.1898 4.53479C15.3494 4.64474 15.4781 4.79687 15.5593 4.97621C15.6132 5.09524 15.6452 5.22708 15.6474 5.36532C15.6479 5.37066 15.6479 5.376 15.6479 5.38187C15.6474 5.58737 15.579 5.77952 15.4696 5.93911Z" fill="white"/>
</g>
<defs>
<clipPath id="clip0_390_81">
<rect width="20" height="20" fill="white"/>
</clipPath>
</defs>
</svg>
