<svg width="20" height="19" viewBox="0 0 20 19" fill="none" xmlns="http://www.w3.org/2000/svg">
<path id="Vector" d="M18.0936 0H1.90273C1.12715 0 0.5 0.612305 0.5 1.36934V17.627C0.5 18.384 1.12715 19 1.90273 19H18.0936C18.8691 19 19.5 18.384 19.5 17.6307V1.36934C19.5 0.612305 18.8691 0 18.0936 0ZM6.13691 16.1908H3.3166V7.12129H6.13691V16.1908ZM4.72676 5.88555C3.82129 5.88555 3.09023 5.15449 3.09023 4.25273C3.09023 3.35098 3.82129 2.61992 4.72676 2.61992C5.62852 2.61992 6.35957 3.35098 6.35957 4.25273C6.35957 5.15078 5.62852 5.88555 4.72676 5.88555ZM16.6908 16.1908H13.8742V11.7822C13.8742 10.732 13.8557 9.37754 12.4084 9.37754C10.9426 9.37754 10.7199 10.5242 10.7199 11.708V16.1908H7.90703V7.12129H10.6086V8.36074H10.6457C11.0205 7.64824 11.9408 6.89492 13.3102 6.89492C16.1639 6.89492 16.6908 8.77266 16.6908 11.2145V16.1908Z" fill="#141F25"/>
</svg>
