<svg width="88" height="88" viewBox="0 0 88 88" fill="none" xmlns="http://www.w3.org/2000/svg">
<rect width="88" height="88" rx="44" fill="#5E0A83"/>
<g clip-path="url(#clip0_90_763)">
<path d="M63.5839 57.4071C62.858 59.0841 61.9988 60.6277 61.0033 62.0469C59.6463 63.9817 58.5352 65.3209 57.6789 66.0646C56.3516 67.2853 54.9294 67.9105 53.4065 67.946C52.3132 67.946 50.9947 67.6349 49.4599 67.0038C47.9201 66.3757 46.5051 66.0646 45.2112 66.0646C43.8542 66.0646 42.3988 66.3757 40.8421 67.0038C39.2831 67.6349 38.0271 67.9638 37.0668 67.9964C35.6064 68.0586 34.1508 67.4157 32.6978 66.0646C31.7704 65.2557 30.6105 63.8691 29.2209 61.9047C27.73 59.807 26.5042 57.3745 25.544 54.6012C24.5155 51.6058 24 48.7051 24 45.8969C24 42.6801 24.6951 39.9057 26.0873 37.5807C27.1815 35.7132 28.6372 34.2401 30.4591 33.1586C32.2809 32.0772 34.2495 31.5261 36.3694 31.4908C37.5293 31.4908 39.0505 31.8496 40.9408 32.5548C42.8258 33.2623 44.0361 33.6211 44.5667 33.6211C44.9635 33.6211 46.308 33.2016 48.5874 32.3652C50.7428 31.5895 52.562 31.2683 54.0524 31.3948C58.0908 31.7207 61.1247 33.3127 63.1425 36.1807C59.5307 38.3691 57.7441 41.4342 57.7797 45.3662C57.8123 48.429 58.9233 50.9776 61.107 53.0013C62.0966 53.9405 63.2017 54.6664 64.4313 55.182C64.1646 55.9553 63.8832 56.696 63.5839 57.4071V57.4071ZM54.322 20.9608C54.322 23.3613 53.445 25.6027 51.6969 27.6773C49.5873 30.1436 47.0357 31.5687 44.2687 31.3439C44.2334 31.0559 44.213 30.7528 44.213 30.4343C44.213 28.1297 45.2162 25.6634 46.9978 23.6469C47.8872 22.6259 49.0185 21.7769 50.3903 21.0997C51.7591 20.4326 53.0539 20.0637 54.2716 20.0005C54.3072 20.3214 54.322 20.6423 54.322 20.9607V20.9608Z" fill="white"/>
</g>
<defs>
<clipPath id="clip0_90_763">
<rect width="48" height="48" fill="white" transform="translate(20 20)"/>
</clipPath>
</defs>
</svg>
