<svg width="87" height="87" viewBox="0 0 87 87" fill="none" xmlns="http://www.w3.org/2000/svg">
<g clip-path="url(#clip0_90_756)">
<path d="M87 43.5C87 19.4758 67.5242 0 43.5 0C19.4758 0 0 19.4758 0 43.5C0 63.8998 14.0453 81.0179 32.9921 85.7194V56.7936H24.0224V43.5H32.9921V37.7719C32.9921 22.9663 39.6929 16.1037 54.2288 16.1037C56.985 16.1037 61.7404 16.6448 63.6857 17.1842V29.2337C62.6591 29.1259 60.8756 29.0719 58.6606 29.0719C51.5284 29.0719 48.7722 31.7741 48.7722 38.7985V43.5H62.981L60.5398 56.7936H48.7722V86.6816C70.3117 84.0803 87.0017 65.7407 87.0017 43.5H87Z" fill="#5E0A83"/>
<path d="M60.5379 56.7934L62.9791 43.4998H48.7703V38.7983C48.7703 31.774 51.5264 29.0717 58.6587 29.0717C60.8737 29.0717 62.6572 29.1257 63.6838 29.2336V17.1841C61.7385 16.6429 56.9831 16.1035 54.2269 16.1035C39.6909 16.1035 32.9902 22.9661 32.9902 37.7717V43.4998H24.0205V56.7934H32.9902V85.7192C36.3554 86.5544 39.8754 86.9998 43.4981 86.9998C45.2816 86.9998 47.0407 86.8902 48.7685 86.6814V56.7934H60.5361H60.5379Z" fill="white"/>
</g>
<defs>
<clipPath id="clip0_90_756">
<rect width="87" height="87" fill="white"/>
</clipPath>
</defs>
</svg>
