<svg width="88" height="88" viewBox="0 0 88 88" fill="none" xmlns="http://www.w3.org/2000/svg">
<rect width="87.0395" height="88" rx="43.5198" fill="#5E0A83"/>
<path d="M44 39.6362V48.9308H56.9163C56.3492 51.9199 54.6471 54.4509 52.0944 56.1527L59.8835 62.1964C64.4217 58.0074 67.0399 51.8546 67.0399 44.5456C67.0399 42.8438 66.8872 41.2073 66.6035 39.6365L44 39.6362Z" fill="white"/>
<path d="M30.5492 48.5679L28.7925 49.9126L22.5742 54.7562C26.5233 62.5888 34.6172 67.9998 43.999 67.9998C50.4788 67.9998 55.9115 65.8616 59.8825 62.1963L52.0934 56.1526C49.9552 57.5926 47.2279 58.4654 43.999 58.4654C37.759 58.4654 32.4574 54.2545 30.559 48.5817L30.5492 48.5679Z" fill="white"/>
<path d="M22.5744 33.2437C20.9381 36.4726 20 40.1163 20 43.9999C20 47.8834 20.9381 51.5271 22.5744 54.7561C22.5744 54.7778 30.5599 48.5597 30.5599 48.5597C30.08 47.1197 29.7962 45.5926 29.7962 43.9996C29.7962 42.4067 30.08 40.8795 30.5599 39.4395L22.5744 33.2437Z" fill="white"/>
<path d="M43.9995 29.5564C47.5341 29.5564 50.6758 30.7781 53.1849 33.1345L60.0576 26.2619C55.8903 22.3783 50.4796 20 43.9995 20C34.6177 20 26.5233 25.3891 22.5742 33.2437L30.5596 39.44C32.4576 33.7672 37.7595 29.5564 43.9995 29.5564Z" fill="white"/>
</svg>
